<?xml version="1.0" encoding="UTF-8"?>
<!DOCTYPE svg PUBLIC "-//W3C//DTD SVG 1.1//EN" "http://www.w3.org/Graphics/SVG/1.1/DTD/svg11.dtd">
<svg xmlns="http://www.w3.org/2000/svg" version="1.1" width="512px" height="512px" style="shape-rendering:geometricPrecision; text-rendering:geometricPrecision; image-rendering:optimizeQuality; fill-rule:evenodd; clip-rule:evenodd" xmlns:xlink="http://www.w3.org/1999/xlink">
<g><path style="opacity:1" fill="#fefefe" d="M -0.5,-0.5 C 170.167,-0.5 340.833,-0.5 511.5,-0.5C 511.5,170.167 511.5,340.833 511.5,511.5C 340.833,511.5 170.167,511.5 -0.5,511.5C -0.5,340.833 -0.5,170.167 -0.5,-0.5 Z"/></g>
<g><path style="opacity:1" fill="#fea010" d="M 445.5,218.5 C 445.5,238.167 445.5,257.833 445.5,277.5C 441.449,277.923 437.616,277.256 434,275.5C 427.973,279.912 422.973,278.912 419,272.5C 417.052,261.478 417.052,250.478 419,239.5C 419.833,237.333 421.333,235.833 423.5,235C 426.592,234.264 429.592,234.431 432.5,235.5C 433.209,236.404 434.209,236.737 435.5,236.5C 435.5,230.5 435.5,224.5 435.5,218.5C 438.833,218.5 442.167,218.5 445.5,218.5 Z"/></g>
<g><path style="opacity:1" fill="#fed184" d="M 361.5,222.5 C 361.817,226.702 361.483,230.702 360.5,234.5C 360.793,230.563 360.46,226.73 359.5,223C 360.094,222.536 360.761,222.369 361.5,222.5 Z"/></g>
<g><path style="opacity:1" fill="#fecd86" d="M 445.5,218.5 C 442.167,218.5 438.833,218.5 435.5,218.5C 435.5,224.5 435.5,230.5 435.5,236.5C 434.209,236.737 433.209,236.404 432.5,235.5C 434.453,229.926 435.12,223.926 434.5,217.5C 438.371,217.185 442.038,217.518 445.5,218.5 Z"/></g>
<g><path style="opacity:1" fill="#1a4093" d="M 197.5,220.5 C 197.5,223.167 197.5,225.833 197.5,228.5C 194.5,228.5 191.5,228.5 188.5,228.5C 188.5,225.833 188.5,223.167 188.5,220.5C 191.5,220.5 194.5,220.5 197.5,220.5 Z"/></g>
<g><path style="opacity:1" fill="#6a82b1" d="M 197.5,220.5 C 194.5,220.5 191.5,220.5 188.5,220.5C 188.5,223.167 188.5,225.833 188.5,228.5C 187.523,225.713 187.19,222.713 187.5,219.5C 191.042,219.187 194.375,219.521 197.5,220.5 Z"/></g>
<g><path style="opacity:1" fill="#8997c7" d="M 76.5,235.5 C 79.6248,234.521 82.9581,234.187 86.5,234.5C 86.2627,235.791 86.596,236.791 87.5,237.5C 87.44,238.043 87.1067,238.376 86.5,238.5C 85.6143,237.675 85.281,236.675 85.5,235.5C 82.5,235.5 79.5,235.5 76.5,235.5 Z"/></g>
<g><path style="opacity:1" fill="#788bbb" d="M 172.5,239.5 C 171.479,239.101 171.146,237.767 171.5,235.5C 168.5,235.5 165.5,235.5 162.5,235.5C 162.5,249.5 162.5,263.5 162.5,277.5C 161.504,263.343 161.171,249.01 161.5,234.5C 165.167,234.5 168.833,234.5 172.5,234.5C 172.5,236.167 172.5,237.833 172.5,239.5 Z"/></g>
<g><path style="opacity:1" fill="#fed084" d="M 469.5,235.5 C 472.687,234.194 476.02,234.194 479.5,235.5C 479.376,236.107 479.043,236.44 478.5,236.5C 475.713,235.523 472.713,235.19 469.5,235.5 Z"/></g>
<g><path style="opacity:1" fill="#fe9e07" d="M 383.5,235.5 C 386.5,235.5 389.5,235.5 392.5,235.5C 392.172,247.012 392.505,258.346 393.5,269.5C 395.817,270.942 397.984,270.608 400,268.5C 400.5,257.172 400.667,245.838 400.5,234.5C 403.833,234.5 407.167,234.5 410.5,234.5C 410.5,248.833 410.5,263.167 410.5,277.5C 407.167,277.5 403.833,277.5 400.5,277.5C 400.657,276.127 400.49,274.793 400,273.5C 396.707,277.395 392.541,278.895 387.5,278C 385.951,276.786 384.785,275.286 384,273.5C 383.5,260.838 383.333,248.171 383.5,235.5 Z"/></g>
<g><path style="opacity:1" fill="#fea116" d="M 361.5,222.5 C 364.833,222.5 368.167,222.5 371.5,222.5C 371.5,226.5 371.5,230.5 371.5,234.5C 373.5,234.5 375.5,234.5 377.5,234.5C 377.5,236.833 377.5,239.167 377.5,241.5C 375.5,241.5 373.5,241.5 371.5,241.5C 371.5,250.833 371.5,260.167 371.5,269.5C 372.5,269.5 373.5,269.5 374.5,269.5C 375.209,270.404 376.209,270.737 377.5,270.5C 377.5,272.833 377.5,275.167 377.5,277.5C 373.486,277.666 369.486,277.499 365.5,277C 363.641,275.442 362.141,273.609 361,271.5C 360.5,261.506 360.334,251.506 360.5,241.5C 359.167,241.5 357.833,241.5 356.5,241.5C 356.5,239.167 356.5,236.833 356.5,234.5C 357.833,234.5 359.167,234.5 360.5,234.5C 361.483,230.702 361.817,226.702 361.5,222.5 Z"/></g>
<g><path style="opacity:1" fill="#224397" d="M 76.5,235.5 C 79.5,235.5 82.5,235.5 85.5,235.5C 85.281,236.675 85.6143,237.675 86.5,238.5C 87.1067,238.376 87.44,238.043 87.5,237.5C 90.9778,234.723 94.9778,233.89 99.5,235C 101.303,235.637 102.636,236.803 103.5,238.5C 108.834,233.699 114.334,233.366 120,237.5C 121.463,250.735 121.963,264.068 121.5,277.5C 118.167,277.5 114.833,277.5 111.5,277.5C 111.5,265.5 111.5,253.5 111.5,241.5C 108.635,241.055 106.135,241.722 104,243.5C 103.5,254.828 103.333,266.162 103.5,277.5C 100.5,277.5 97.5,277.5 94.5,277.5C 94.6665,265.829 94.4999,254.162 94,242.5C 91.4082,241.018 89.0749,241.352 87,243.5C 86.5001,254.828 86.3335,266.162 86.5,277.5C 83.1667,277.5 79.8333,277.5 76.5,277.5C 76.5,263.5 76.5,249.5 76.5,235.5 Z"/></g>
<g><path style="opacity:1" fill="#6376b3" d="M 197.5,235.5 C 194.5,235.5 191.5,235.5 188.5,235.5C 188.5,249.5 188.5,263.5 188.5,277.5C 187.504,263.343 187.171,249.01 187.5,234.5C 191.042,234.187 194.375,234.521 197.5,235.5 Z"/></g>
<g><path style="opacity:1" fill="#184096" d="M 197.5,235.5 C 197.5,249.5 197.5,263.5 197.5,277.5C 194.5,277.5 191.5,277.5 188.5,277.5C 188.5,263.5 188.5,249.5 188.5,235.5C 191.5,235.5 194.5,235.5 197.5,235.5 Z"/></g>
<g><path style="opacity:1" fill="#feb953" d="M 383.5,235.5 C 386.625,234.521 389.958,234.187 393.5,234.5C 393.5,246.167 393.5,257.833 393.5,269.5C 392.505,258.346 392.172,247.012 392.5,235.5C 389.5,235.5 386.5,235.5 383.5,235.5 Z"/></g>
<g><path style="opacity:1" fill="#fcfbf7" d="M 429.5,241.5 C 431.167,241.5 432.833,241.5 434.5,241.5C 434.5,251.167 434.5,260.833 434.5,270.5C 431.921,270.917 429.754,270.25 428,268.5C 427.333,260.167 427.333,251.833 428,243.5C 428.717,242.956 429.217,242.289 429.5,241.5 Z"/></g>
<g><path style="opacity:1" fill="#264598" d="M 271.5,277.5 C 271.5,263.5 271.5,249.5 271.5,235.5C 274.5,235.5 277.5,235.5 280.5,235.5C 280.281,236.675 280.614,237.675 281.5,238.5C 282.107,238.376 282.44,238.043 282.5,237.5C 286.019,234.721 290.019,233.888 294.5,235C 296.049,236.214 297.215,237.714 298,239.5C 298.5,252.162 298.667,264.829 298.5,277.5C 294.833,277.5 291.167,277.5 287.5,277.5C 287.5,265.833 287.5,254.167 287.5,242.5C 285.208,242.244 283.041,242.577 281,243.5C 280.5,254.828 280.333,266.162 280.5,277.5C 277.5,277.5 274.5,277.5 271.5,277.5 Z"/></g>
<g><path style="opacity:1" fill="#204297" d="M 247.5,244.5 C 246.566,245.568 246.232,246.901 246.5,248.5C 243.5,248.5 240.5,248.5 237.5,248.5C 238.046,237.038 244.046,232.538 255.5,235C 258.196,235.69 260.363,237.19 262,239.5C 263.186,252.103 264.02,264.77 264.5,277.5C 261.428,277.817 258.428,277.484 255.5,276.5C 254.902,275.205 254.402,273.872 254,272.5C 247.856,280.755 242.189,280.422 237,271.5C 236.37,259.95 241.87,253.284 253.5,251.5C 253.664,248.813 253.497,246.146 253,243.5C 250.735,240.868 248.901,241.201 247.5,244.5 Z"/></g>
<g><path style="opacity:1" fill="#5d74b2" d="M 282.5,237.5 C 282.44,238.043 282.107,238.376 281.5,238.5C 280.614,237.675 280.281,236.675 280.5,235.5C 277.5,235.5 274.5,235.5 271.5,235.5C 271.5,249.5 271.5,263.5 271.5,277.5C 270.504,263.343 270.171,249.01 270.5,234.5C 274.167,234.5 277.833,234.5 281.5,234.5C 281.263,235.791 281.596,236.791 282.5,237.5 Z"/></g>
<g><path style="opacity:1" fill="#6f88b9" d="M 247.5,244.5 C 247.5,246.167 247.5,247.833 247.5,249.5C 243.958,249.813 240.625,249.479 237.5,248.5C 240.5,248.5 243.5,248.5 246.5,248.5C 246.232,246.901 246.566,245.568 247.5,244.5 Z"/></g>
<g><path style="opacity:1" fill="#fe9f0b" d="M 332.5,217.5 C 345.668,215.675 352.334,221.341 352.5,234.5C 349.5,234.5 346.5,234.5 343.5,234.5C 343.162,232.146 342.662,229.813 342,227.5C 338.706,224.689 335.706,225.022 333,228.5C 332.257,231.783 332.924,234.783 335,237.5C 340.327,241.828 345.327,246.494 350,251.5C 353.832,257.816 354.498,264.482 352,271.5C 342.954,280.826 333.954,280.826 325,271.5C 323.217,267.702 322.384,263.702 322.5,259.5C 325.833,259.167 329.167,258.833 332.5,258.5C 331.9,262.516 332.9,266.016 335.5,269C 340.406,270.756 343.073,269.089 343.5,264C 343.204,262.112 342.704,260.278 342,258.5C 336.857,253.268 331.524,248.268 326,243.5C 320.853,235.172 321.353,227.339 327.5,220C 329.315,219.243 330.981,218.41 332.5,217.5 Z"/></g>
<g><path style="opacity:1" fill="#1a4095" d="M 162.5,277.5 C 162.5,263.5 162.5,249.5 162.5,235.5C 165.5,235.5 168.5,235.5 171.5,235.5C 171.146,237.767 171.479,239.101 172.5,239.5C 174.296,238.207 175.963,236.707 177.5,235C 179.134,234.506 180.801,234.34 182.5,234.5C 182.5,237.833 182.5,241.167 182.5,244.5C 178.599,243.857 175.266,244.857 172.5,247.5C 171.501,257.478 171.168,267.478 171.5,277.5C 168.5,277.5 165.5,277.5 162.5,277.5 Z"/></g>
<g><path style="opacity:1" fill="#f5f8fa" d="M 251.5,257.5 C 252.787,258.871 253.453,260.705 253.5,263C 253.333,264.833 253.167,266.667 253,268.5C 249.182,271.498 247.016,270.498 246.5,265.5C 246.672,261.807 248.339,259.141 251.5,257.5 Z"/></g>
<g><path style="opacity:1" fill="#fe9e09" d="M 469.5,235.5 C 472.713,235.19 475.713,235.523 478.5,236.5C 475.535,251.953 472.035,267.287 468,282.5C 467.215,284.286 466.049,285.786 464.5,287C 460.914,288.108 457.247,288.608 453.5,288.5C 453.5,286.167 453.5,283.833 453.5,281.5C 460.777,281.104 462.443,277.771 458.5,271.5C 455.708,259.123 452.708,246.79 449.5,234.5C 452.833,234.5 456.167,234.5 459.5,234.5C 461.194,243.597 463.027,252.597 465,261.5C 466.022,252.606 467.522,243.939 469.5,235.5 Z"/></g>
<g><path style="opacity:1" fill="#1f4296" d="M 47.5,218.5 C 51.8333,218.5 56.1667,218.5 60.5,218.5C 64.006,238.192 67.6727,257.859 71.5,277.5C 68.1016,277.82 64.7683,277.487 61.5,276.5C 59.9347,272.313 59.2681,267.98 59.5,263.5C 55.8333,263.5 52.1667,263.5 48.5,263.5C 47.7404,268.15 47.0738,272.817 46.5,277.5C 43.1667,277.5 39.8333,277.5 36.5,277.5C 40.037,257.815 43.7037,238.148 47.5,218.5 Z"/></g>
<g><path style="opacity:1" fill="#eaf1f6" d="M 53.5,233.5 C 55.0683,240.997 56.4016,248.664 57.5,256.5C 55.1667,256.5 52.8333,256.5 50.5,256.5C 51.0187,248.762 52.0187,241.096 53.5,233.5 Z"/></g>
<g><path style="opacity:1" fill="#5b73aa" d="M 230.5,268.5 C 230.5,266.167 230.5,263.833 230.5,261.5C 227.833,261.5 225.167,261.5 222.5,261.5C 222.795,263.735 222.461,265.735 221.5,267.5C 221.5,265.167 221.5,262.833 221.5,260.5C 224.833,260.5 228.167,260.5 231.5,260.5C 231.806,263.385 231.473,266.052 230.5,268.5 Z"/></g>
<g><path style="opacity:1" fill="#214296" d="M 137.5,234.5 C 143.652,233.408 148.818,235.075 153,239.5C 154.351,245.072 154.851,250.738 154.5,256.5C 149.167,256.5 143.833,256.5 138.5,256.5C 138.228,260.902 138.561,265.235 139.5,269.5C 141.006,270.747 142.506,270.747 144,269.5C 145.252,266.986 145.752,264.32 145.5,261.5C 148.833,261.5 152.167,261.5 155.5,261.5C 156.014,274.154 150.014,279.654 137.5,278C 132.901,276.402 130.068,273.235 129,268.5C 128.333,259.833 128.333,251.167 129,242.5C 130.419,238.245 133.253,235.578 137.5,234.5 Z"/></g>
<g><path style="opacity:1" fill="#f2f5f7" d="M 139.5,241.5 C 141.722,241.178 143.556,241.845 145,243.5C 145.497,246.146 145.664,248.813 145.5,251.5C 143.167,251.5 140.833,251.5 138.5,251.5C 138.253,248.061 138.586,244.728 139.5,241.5 Z"/></g>
<g><path style="opacity:1" fill="#244496" d="M 221.5,267.5 C 222.461,265.735 222.795,263.735 222.5,261.5C 225.167,261.5 227.833,261.5 230.5,261.5C 230.5,263.833 230.5,266.167 230.5,268.5C 230.259,273.13 227.925,276.297 223.5,278C 213.283,280.322 207.117,276.489 205,266.5C 204.333,258.833 204.333,251.167 205,243.5C 208.529,235.154 214.696,232.321 223.5,235C 226.196,235.69 228.363,237.19 230,239.5C 231.266,243.395 231.766,247.395 231.5,251.5C 228.167,251.5 224.833,251.5 221.5,251.5C 221.665,248.482 221.498,245.482 221,242.5C 218.224,240.86 216.224,241.527 215,244.5C 214.333,252.5 214.333,260.5 215,268.5C 217.864,271.402 220.031,271.068 221.5,267.5 Z"/></g>
<g><path style="opacity:1" fill="#feca88" d="M 374.5,269.5 C 375.833,269.5 377.167,269.5 378.5,269.5C 378.806,272.385 378.473,275.052 377.5,277.5C 377.5,275.167 377.5,272.833 377.5,270.5C 376.209,270.737 375.209,270.404 374.5,269.5 Z"/></g>
<g><path style="opacity:1" fill="#ffebcb" d="M 458.5,271.5 C 462.443,277.771 460.777,281.104 453.5,281.5C 453.5,283.833 453.5,286.167 453.5,288.5C 452.469,286.039 451.802,283.373 451.5,280.5C 453.527,280.662 455.527,280.495 457.5,280C 456.167,278.16 456.334,277.66 458,278.5C 458.497,276.19 458.663,273.857 458.5,271.5 Z"/></g>
<g><path style="opacity:1" fill="#8b8b8c" d="M 349.5,293.5 C 353.122,292.924 356.122,293.924 358.5,296.5C 358,296.833 357.5,297.167 357,297.5C 354.03,294.549 351.53,294.882 349.5,298.5C 351.605,301.487 354.438,303.487 358,304.5C 359.153,313.526 355.653,316.192 347.5,312.5C 346.754,311.264 346.421,309.93 346.5,308.5C 347.5,308.5 348.5,308.5 349.5,308.5C 349.408,312.071 351.074,313.238 354.5,312C 356.602,310.267 356.935,308.267 355.5,306C 352.751,304.877 350.251,303.377 348,301.5C 347.109,298.502 347.609,295.836 349.5,293.5 Z"/></g>
<g><path style="opacity:1" fill="#949495" d="M 156.5,293.5 C 160.884,293.174 165.217,293.508 169.5,294.5C 168.332,296.217 166.665,296.884 164.5,296.5C 164.5,302.5 164.5,308.5 164.5,314.5C 163.5,314.5 162.5,314.5 161.5,314.5C 161.5,308.167 161.5,301.833 161.5,295.5C 159.219,295.923 157.552,295.256 156.5,293.5 Z"/></g>
<g><path style="opacity:1" fill="#8d8d8e" d="M 129.5,301.5 C 133.329,301.927 136.996,301.927 140.5,301.5C 140.5,305.833 140.5,310.167 140.5,314.5C 137.991,313.325 135.491,313.325 133,314.5C 128.792,314.1 126.959,311.766 127.5,307.5C 127.363,305.159 128.03,303.159 129.5,301.5 Z"/></g>
<g><path style="opacity:1" fill="#919094" d="M 143.5,296.5 C 144.5,296.5 145.5,296.5 146.5,296.5C 146.229,298.821 146.896,300.821 148.5,302.5C 146.669,306.241 146.003,310.241 146.5,314.5C 145.5,314.5 144.5,314.5 143.5,314.5C 143.059,308.407 143.059,302.407 143.5,296.5 Z"/></g>
<g><path style="opacity:1" fill="#8e8e8f" d="M 277.5,293.5 C 280.941,293.301 284.274,293.801 287.5,295C 289.421,296.241 289.754,297.741 288.5,299.5C 280.986,293.162 275.986,294.662 273.5,304C 275.363,312.554 279.863,314.387 287,309.5C 287.483,308.552 287.649,307.552 287.5,306.5C 285.833,306.5 284.167,306.5 282.5,306.5C 282.5,305.5 282.5,304.5 282.5,303.5C 285.5,303.5 288.5,303.5 291.5,303.5C 290.348,313.579 285.015,316.745 275.5,313C 268.363,305.664 269.03,299.164 277.5,293.5 Z"/></g>
<g><path style="opacity:1" fill="#959698" d="M 332.5,296.5 C 333.5,296.5 334.5,296.5 335.5,296.5C 335.229,298.821 335.896,300.821 337.5,302.5C 335.669,306.241 335.003,310.241 335.5,314.5C 334.5,314.5 333.5,314.5 332.5,314.5C 332.059,308.407 332.059,302.407 332.5,296.5 Z"/></g>
<g><path style="opacity:1" fill="#99999b" d="M 374.5,291.5 C 375.5,291.5 376.5,291.5 377.5,291.5C 377.5,294.833 377.5,298.167 377.5,301.5C 380.365,301.055 382.865,301.722 385,303.5C 385.499,307.152 385.665,310.818 385.5,314.5C 384.5,314.5 383.5,314.5 382.5,314.5C 382.5,310.833 382.5,307.167 382.5,303.5C 380.856,303.286 379.356,303.62 378,304.5C 377.502,307.817 377.335,311.15 377.5,314.5C 376.5,314.5 375.5,314.5 374.5,314.5C 374.5,306.833 374.5,299.167 374.5,291.5 Z"/></g>
<g><path style="opacity:1" fill="#8b8b8c" d="M 405.5,301.5 C 415.239,300.386 418.239,304.22 414.5,313C 404.066,315.383 401.066,311.55 405.5,301.5 Z"/></g>
<g><path style="opacity:1" fill="#868686" d="M 105.5,301.5 C 107.604,301.201 109.604,301.534 111.5,302.5C 110.372,303.262 109.205,303.929 108,304.5C 107.824,307.882 107.324,311.215 106.5,314.5C 105.508,310.217 105.174,305.884 105.5,301.5 Z"/></g>
<g><path style="opacity:1" fill="#f6f6f5" d="M 131.5,303.5 C 137.605,303.917 138.938,306.75 135.5,312C 132.783,313.033 130.949,312.2 130,309.5C 129.252,307.16 129.752,305.16 131.5,303.5 Z"/></g>
<g><path style="opacity:1" fill="#898989" d="M 244.5,300.5 C 249.623,301.635 249.457,302.968 244,304.5C 243.824,307.882 243.324,311.215 242.5,314.5C 241.508,310.217 241.174,305.884 241.5,301.5C 242.791,301.737 243.791,301.404 244.5,300.5 Z"/></g>
<g><path style="opacity:1" fill="#f5f5f5" d="M 407.5,303.5 C 412.459,302.628 414.625,304.628 414,309.5C 408.286,314.239 405.619,312.905 406,305.5C 406.717,304.956 407.217,304.289 407.5,303.5 Z"/></g>
<g><path style="opacity:1" fill="#979798" d="M 293.5,301.5 C 295.924,301.192 298.257,301.526 300.5,302.5C 299.372,303.262 298.205,303.929 297,304.5C 296.502,307.817 296.335,311.15 296.5,314.5C 295.5,314.5 294.5,314.5 293.5,314.5C 293.5,310.167 293.5,305.833 293.5,301.5 Z"/></g>
<g><path style="opacity:1" fill="#898a8b" d="M 172.5,301.5 C 178.643,299.99 181.976,302.323 182.5,308.5C 179.102,308.18 175.768,308.513 172.5,309.5C 174.729,313.055 177.396,313.388 180.5,310.5C 181.571,312.325 180.904,313.492 178.5,314C 173.319,314.989 170.652,312.822 170.5,307.5C 170.363,305.159 171.03,303.159 172.5,301.5 Z"/></g>
<g><path style="opacity:1" fill="#e4e5e7" d="M 173.5,303.5 C 175.977,303.051 177.977,303.717 179.5,305.5C 177.167,306.833 174.833,306.833 172.5,305.5C 172.863,304.817 173.196,304.15 173.5,303.5 Z"/></g>
<g><path style="opacity:1" fill="#89888b" d="M 201.5,301.5 C 204.167,301.5 206.833,301.5 209.5,301.5C 209.9,304.761 208.733,305.428 206,303.5C 201.918,304.159 200.584,306.492 202,310.5C 204.587,313.034 207.253,313.034 210,310.5C 210.274,313.487 208.774,314.821 205.5,314.5C 199.905,313.422 198.072,310.088 200,304.5C 201.039,303.756 201.539,302.756 201.5,301.5 Z"/></g>
<g><path style="opacity:1" fill="#848485" d="M 419.5,291.5 C 420.823,294.938 421.49,298.771 421.5,303C 421.167,306.833 420.833,310.667 420.5,314.5C 419.503,306.862 419.169,299.196 419.5,291.5 Z"/></g>
<g><path style="opacity:1" fill="#8b8b8c" d="M 304.5,301.5 C 310.686,300.042 314.019,302.375 314.5,308.5C 311.102,308.18 307.768,308.513 304.5,309.5C 306.729,313.055 309.396,313.388 312.5,310.5C 313.594,311.868 313.26,313.035 311.5,314C 305.259,316.196 302.259,314.03 302.5,307.5C 302.363,305.159 303.03,303.159 304.5,301.5 Z"/></g>
<g><path style="opacity:1" fill="#e5e6e7" d="M 305.5,303.5 C 307.977,303.051 309.977,303.717 311.5,305.5C 309.167,306.833 306.833,306.833 304.5,305.5C 304.863,304.817 305.196,304.15 305.5,303.5 Z"/></g>
<g><path style="opacity:1" fill="#8a8a8b" d="M 391.5,301.5 C 400.786,300.935 403.453,304.769 399.5,313C 390.735,315.908 387.235,312.741 389,303.5C 389.995,302.934 390.828,302.267 391.5,301.5 Z"/></g>
<g><path style="opacity:1" fill="#f6f6f6" d="M 392.5,303.5 C 398.367,303.206 400.033,305.872 397.5,311.5C 390.409,312.531 388.742,309.864 392.5,303.5 Z"/></g>
<g><path style="opacity:1" fill="#8c8c8d" d="M 426.5,301.5 C 428.75,301.181 430.75,301.681 432.5,303C 432,303.5 431.5,304 431,304.5C 429.817,303.269 428.651,303.269 427.5,304.5C 430.171,305.658 432.171,307.491 433.5,310C 432.775,314.084 430.442,315.418 426.5,314C 424.595,313.174 424.261,312.007 425.5,310.5C 426.85,311.95 428.516,312.617 430.5,312.5C 430.649,311.448 430.483,310.448 430,309.5C 425.814,308.049 424.647,305.383 426.5,301.5 Z"/></g>
<g><path style="opacity:1" fill="#8b8b8c" d="M 186.5,301.5 C 189.833,301.5 193.167,301.5 196.5,301.5C 196.826,305.884 196.492,310.217 195.5,314.5C 193.744,313.593 191.911,313.593 190,314.5C 183.07,311.783 181.903,307.449 186.5,301.5 Z"/></g>
<g><path style="opacity:1" fill="#f5f5f6" d="M 187.5,303.5 C 194.444,303.272 196.11,306.106 192.5,312C 190.299,312.825 188.466,312.325 187,310.5C 186.297,308.071 186.463,305.738 187.5,303.5 Z"/></g>
<g><path style="opacity:1" fill="#868788" d="M 213.5,291.5 C 215.26,294.701 216.094,298.367 216,302.5C 218.333,301.167 220.667,301.167 223,302.5C 223.827,306.541 223.66,310.541 222.5,314.5C 221.676,311.215 221.176,307.882 221,304.5C 219.333,303.167 217.667,303.167 216,304.5C 215.824,307.882 215.324,311.215 214.5,314.5C 213.503,306.862 213.169,299.196 213.5,291.5 Z"/></g>
<g><path style="opacity:1" fill="#8a8a8a" d="M 251.5,301.5 C 253.5,301.5 255.5,301.5 257.5,301.5C 257.719,302.675 257.386,303.675 256.5,304.5C 255.391,303.41 254.391,303.41 253.5,304.5C 254.865,305.941 256.365,307.274 258,308.5C 258.664,313.496 256.498,315.33 251.5,314C 250.378,310.055 251.378,309.555 254.5,312.5C 255.5,312.167 256.167,311.5 256.5,310.5C 254.971,308.812 253.137,307.479 251,306.5C 250.36,304.735 250.527,303.068 251.5,301.5 Z"/></g>
<g><path style="opacity:1" fill="#8e8e8e" d="M 264.5,311.5 C 265.5,311.5 266.5,311.5 267.5,311.5C 267.5,312.5 267.5,313.5 267.5,314.5C 266.5,314.5 265.5,314.5 264.5,314.5C 264.5,313.5 264.5,312.5 264.5,311.5 Z"/></g>
<g><path style="opacity:1" fill="#8b8c8d" d="M 88.5,293.5 C 93.6838,292.727 98.0171,294.227 101.5,298C 100.01,299.634 98.6763,299.301 97.5,297C 90.1893,293.822 85.856,296.155 84.5,304C 86.2576,311.546 90.5909,313.712 97.5,310.5C 98.4147,309.672 99.0814,308.672 99.5,307.5C 97.604,306.534 95.604,306.201 93.5,306.5C 93.5,305.5 93.5,304.5 93.5,303.5C 96.5,303.5 99.5,303.5 102.5,303.5C 101.787,312.041 97.1204,315.541 88.5,314C 82.3984,309.895 80.8984,304.395 84,297.5C 85.6667,296.267 87.1667,294.933 88.5,293.5 Z"/></g>
<g><path style="opacity:1" fill="#89898b" d="M 115.5,301.5 C 121.686,300.042 125.019,302.375 125.5,308.5C 122.15,308.335 118.817,308.502 115.5,309C 116.098,311.048 117.431,312.215 119.5,312.5C 121.323,311.155 123.323,310.655 125.5,311C 119.628,316.432 115.628,315.432 113.5,308C 113.482,305.59 114.149,303.423 115.5,301.5 Z"/></g>
<g><path style="opacity:1" fill="#f1f2f3" d="M 117.5,303.5 C 119.665,303.116 121.332,303.783 122.5,305.5C 120.5,306.833 118.5,306.833 116.5,305.5C 116.863,304.817 117.196,304.15 117.5,303.5 Z"/></g>
<g><path style="opacity:1" fill="#8a8a8b" d="M 228.5,301.5 C 234.686,300.042 238.019,302.375 238.5,308.5C 235.15,308.335 231.817,308.502 228.5,309C 229.098,311.048 230.431,312.215 232.5,312.5C 234.323,311.155 236.323,310.655 238.5,311C 235.865,314.497 232.532,315.33 228.5,313.5C 225.919,309.536 225.919,305.536 228.5,301.5 Z"/></g>
<g><path style="opacity:1" fill="#f0f1f2" d="M 230.5,303.5 C 232.665,303.116 234.332,303.783 235.5,305.5C 233.5,306.833 231.5,306.833 229.5,305.5C 229.863,304.817 230.196,304.15 230.5,303.5 Z"/></g>
<g><path style="opacity:1" fill="#8a8a8b" d="M 318.5,301.5 C 321.833,301.5 325.167,301.5 328.5,301.5C 328.826,305.884 328.492,310.217 327.5,314.5C 324.933,314.222 322.267,314.056 319.5,314C 314.524,310.265 314.191,306.098 318.5,301.5 Z"/></g>
<g><path style="opacity:1" fill="#f6f6f6" d="M 320.5,303.5 C 326.661,303.943 327.995,306.777 324.5,312C 319.504,312.664 317.67,310.498 319,305.5C 319.717,304.956 320.217,304.289 320.5,303.5 Z"/></g>
<g><path style="opacity:1" fill="#888889" d="M 363.5,301.5 C 366.167,301.5 368.833,301.5 371.5,301.5C 371.9,304.761 370.733,305.428 368,303.5C 363.918,304.159 362.584,306.492 364,310.5C 364.5,311 365,311.5 365.5,312C 367.657,312.078 369.657,312.245 371.5,312.5C 368.005,315.368 364.838,315.035 362,311.5C 361.153,307.928 361.653,304.594 363.5,301.5 Z"/></g>
</svg>
