<?xml version="1.0" encoding="UTF-8"?>
<!DOCTYPE svg PUBLIC "-//W3C//DTD SVG 1.1//EN" "http://www.w3.org/Graphics/SVG/1.1/DTD/svg11.dtd">
<svg xmlns="http://www.w3.org/2000/svg" version="1.1" width="4259px" height="1012px" style="shape-rendering:geometricPrecision; text-rendering:geometricPrecision; image-rendering:optimizeQuality; fill-rule:evenodd; clip-rule:evenodd" xmlns:xlink="http://www.w3.org/1999/xlink">
<g><path style="opacity:0.991" fill="#0082cb" d="M 565.5,129.5 C 574.251,128.282 582.251,130.115 589.5,135C 732.331,225.25 875.331,315.25 1018.5,405C 1026.4,413.216 1027.56,422.382 1022,432.5C 851.337,540.334 680.337,647.667 509,754.5C 507.662,727.24 505.829,700.073 503.5,673C 379.833,595.333 256.167,517.667 132.5,440C 128.084,437.588 124.251,434.422 121,430.5C 116.102,419.813 118.268,410.98 127.5,404C 273.429,312.212 419.429,220.712 565.5,129.5 Z M 600.5,252.5 C 615.945,261.727 631.278,271.227 646.5,281C 559.5,336.167 472.5,391.333 385.5,446.5C 370.663,437.249 355.996,427.749 341.5,418C 428.008,362.97 514.341,307.804 600.5,252.5 Z M 632.5,350.5 C 648.931,360.415 665.265,370.582 681.5,381C 616.253,422.875 550.753,464.375 485,505.5C 468.918,495.208 452.751,485.042 436.5,475C 502.007,433.637 567.34,392.137 632.5,350.5 Z M 785.5,372.5 C 800.903,381.043 815.903,390.376 830.5,400.5C 743.915,455.709 657.415,511.042 571,566.5C 556.167,557 541.333,547.5 526.5,538C 612.898,482.809 699.231,427.642 785.5,372.5 Z"/></g>
<g><path style="opacity:0.978" fill="#004789" d="M 3359.5,279.5 C 3371.93,278.57 3383.6,281.07 3394.5,287C 3405.6,295.697 3410.93,307.197 3410.5,321.5C 3409.21,349.452 3394.55,363.452 3366.5,363.5C 3333.93,361.413 3319.76,344.08 3324,311.5C 3328.46,292.54 3340.29,281.873 3359.5,279.5 Z"/></g>
<g><path style="opacity:0.989" fill="#004789" d="M 1129.5,288.5 C 1216.5,288.5 1303.5,288.5 1390.5,288.5C 1390.5,312.167 1390.5,335.833 1390.5,359.5C 1330.17,359.5 1269.83,359.5 1209.5,359.5C 1209.5,385.5 1209.5,411.5 1209.5,437.5C 1264.83,437.5 1320.17,437.5 1375.5,437.5C 1375.5,460.833 1375.5,484.167 1375.5,507.5C 1320.17,507.5 1264.83,507.5 1209.5,507.5C 1209.5,534.5 1209.5,561.5 1209.5,588.5C 1271.17,588.5 1332.83,588.5 1394.5,588.5C 1394.5,612.167 1394.5,635.833 1394.5,659.5C 1306.17,659.5 1217.83,659.5 1129.5,659.5C 1129.5,535.833 1129.5,412.167 1129.5,288.5 Z"/></g>
<g><path style="opacity:0.987" fill="#004789" d="M 1635.5,288.5 C 1660.17,288.5 1684.83,288.5 1709.5,288.5C 1709.5,412.167 1709.5,535.833 1709.5,659.5C 1687.5,659.5 1665.5,659.5 1643.5,659.5C 1643.67,648.162 1643.5,636.828 1643,625.5C 1619.49,653.334 1589.32,667.334 1552.5,667.5C 1490.46,664.911 1450.63,633.911 1433,574.5C 1420.89,526.89 1428.56,482.89 1456,442.5C 1477.33,415.748 1505.16,400.915 1539.5,398C 1572.32,394.535 1601.66,402.869 1627.5,423C 1630,425.5 1632.5,428 1635,430.5C 1635.5,383.168 1635.67,335.835 1635.5,288.5 Z M 1560.5,460.5 C 1594.07,458.695 1618.9,472.362 1635,501.5C 1635.67,521.833 1635.67,542.167 1635,562.5C 1621.44,589.202 1599.6,603.202 1569.5,604.5C 1537.65,602.828 1516.82,586.828 1507,556.5C 1498.9,525.969 1505.4,499.136 1526.5,476C 1536.54,467.808 1547.88,462.642 1560.5,460.5 Z"/></g>
<g><path style="opacity:0.99" fill="#004789" d="M 2406.5,288.5 C 2462.5,288.333 2518.5,288.5 2574.5,289C 2601.98,290.036 2627.98,296.702 2652.5,309C 2689.83,331.967 2707.83,365.634 2706.5,410C 2705.96,465.847 2679.29,502.514 2626.5,520C 2662.79,566.621 2699.45,612.954 2736.5,659C 2705.5,659.667 2674.5,659.667 2643.5,659C 2610.26,616.514 2577.26,573.847 2544.5,531C 2525.17,530.5 2505.84,530.333 2486.5,530.5C 2486.5,573.5 2486.5,616.5 2486.5,659.5C 2459.83,659.5 2433.17,659.5 2406.5,659.5C 2406.5,535.833 2406.5,412.167 2406.5,288.5 Z M 2486.5,359.5 C 2515.5,359.333 2544.5,359.5 2573.5,360C 2612.14,365.117 2628.64,386.95 2623,425.5C 2616.7,445.464 2603.2,457.298 2582.5,461C 2576.88,462.052 2571.22,462.718 2565.5,463C 2539.17,463.5 2512.84,463.667 2486.5,463.5C 2486.5,428.833 2486.5,394.167 2486.5,359.5 Z"/></g>
<g><path style="opacity:0.986" fill="#004789" d="M 2197.5,291.5 C 2231.8,289.327 2264.14,296.16 2294.5,312C 2329.63,335.299 2344.79,368.133 2340,410.5C 2336.87,433.764 2327.53,454.097 2312,471.5C 2293.12,491.055 2271.96,507.555 2248.5,521C 2224.82,533.834 2202.15,548.167 2180.5,564C 2171.72,570.927 2166.05,579.76 2163.5,590.5C 2223.5,590.5 2283.5,590.5 2343.5,590.5C 2343.5,613.5 2343.5,636.5 2343.5,659.5C 2253.17,659.5 2162.83,659.5 2072.5,659.5C 2063.25,593.895 2085.25,542.062 2138.5,504C 2145.67,499.581 2152.67,494.915 2159.5,490C 2185.09,475.398 2210.43,460.398 2235.5,445C 2244.47,438.366 2251.64,430.199 2257,420.5C 2266.22,395.475 2258.72,377.641 2234.5,367C 2208.03,360.608 2181.7,361.275 2155.5,369C 2130.05,376.892 2106.71,388.726 2085.5,404.5C 2084.17,379.5 2084.17,354.5 2085.5,329.5C 2119.28,306.241 2156.61,293.574 2197.5,291.5 Z"/></g>
<g><path style="opacity:0.985" fill="#004789" d="M 2859.5,397.5 C 2893.62,394.697 2924.96,402.531 2953.5,421C 2984.01,446.541 2999.01,479.374 2998.5,519.5C 2998.15,531.952 2996.82,544.285 2994.5,556.5C 2934.83,556.333 2875.17,556.5 2815.5,557C 2821.89,577.06 2834.89,591.06 2854.5,599C 2879.89,607.542 2905.89,609.875 2932.5,606C 2949.13,603.676 2965.13,599.176 2980.5,592.5C 2981.83,612.167 2981.83,631.833 2980.5,651.5C 2962.82,658.603 2944.49,663.103 2925.5,665C 2889.66,670.157 2854.66,666.824 2820.5,655C 2767.26,631.565 2740.59,590.565 2740.5,532C 2743.33,454.348 2783,409.514 2859.5,397.5 Z M 2866.5,454.5 C 2886.32,452.493 2903.15,458.493 2917,472.5C 2924.43,482.95 2927.93,494.617 2927.5,507.5C 2890.17,507.5 2852.83,507.5 2815.5,507.5C 2816.6,484.121 2827.93,467.955 2849.5,459C 2855.25,457.314 2860.92,455.814 2866.5,454.5 Z"/></g>
<g><path style="opacity:0.984" fill="#004789" d="M 3571.5,397.5 C 3594.82,396.131 3617.49,399.298 3639.5,407C 3675.79,422.634 3698.29,449.8 3707,488.5C 3711.33,511.183 3711.17,533.85 3706.5,556.5C 3646.83,556.167 3587.16,556.5 3527.5,557.5C 3534.12,577.287 3547.12,591.12 3566.5,599C 3588.83,607.041 3611.83,609.708 3635.5,607C 3655.27,605.14 3674.27,600.306 3692.5,592.5C 3693.83,612.167 3693.83,631.833 3692.5,651.5C 3650.9,666.426 3608.24,670.593 3564.5,664C 3523.28,657.051 3491.45,636.218 3469,601.5C 3451.59,566.375 3447.59,529.708 3457,491.5C 3471.62,443.214 3503.45,413.047 3552.5,401C 3558.94,399.61 3565.27,398.443 3571.5,397.5 Z M 3578.5,454.5 C 3595.19,452.92 3610.19,457.087 3623.5,467C 3634.36,477.91 3639.53,491.077 3639,506.5C 3601.57,507.496 3564.07,507.83 3526.5,507.5C 3530.38,476.617 3547.72,458.95 3578.5,454.5 Z"/></g>
<g><path style="opacity:0.982" fill="#004789" d="M 1767.5,404.5 C 1792.5,404.5 1817.5,404.5 1842.5,404.5C 1842.02,459.538 1842.52,514.538 1844,569.5C 1850.86,591.959 1866.2,602.959 1890,602.5C 1913.66,601.177 1932.32,590.843 1946,571.5C 1946.5,515.834 1946.67,460.168 1946.5,404.5C 1971.5,404.5 1996.5,404.5 2021.5,404.5C 2021.5,489.5 2021.5,574.5 2021.5,659.5C 1999.5,659.5 1977.5,659.5 1955.5,659.5C 1955.67,649.161 1955.5,638.828 1955,628.5C 1924.12,661.79 1886.29,673.623 1841.5,664C 1796.38,651.347 1771.88,621.513 1768,574.5C 1767.5,517.834 1767.33,461.168 1767.5,404.5 Z"/></g>
<g><path style="opacity:0.983" fill="#004789" d="M 3006.5,404.5 C 3033.07,404.172 3059.57,404.505 3086,405.5C 3107.14,463.244 3128.47,520.91 3150,578.5C 3171.79,520.983 3193.29,463.316 3214.5,405.5C 3240.82,404.5 3267.16,404.167 3293.5,404.5C 3293.26,407.647 3292.43,410.647 3291,413.5C 3257.06,495.053 3223.39,576.719 3190,658.5C 3163.57,659.495 3137.07,659.828 3110.5,659.5C 3075.83,574.5 3041.17,489.5 3006.5,404.5 Z"/></g>
<g><path style="opacity:0.98" fill="#004789" d="M 3329.5,404.5 C 3354.5,404.5 3379.5,404.5 3404.5,404.5C 3404.5,489.5 3404.5,574.5 3404.5,659.5C 3379.5,659.5 3354.5,659.5 3329.5,659.5C 3329.5,574.5 3329.5,489.5 3329.5,404.5 Z"/></g>
<g><path style="opacity:0.985" fill="#004789" d="M 3723.5,404.5 C 3749.84,404.167 3776.18,404.5 3802.5,405.5C 3817.82,462.451 3832.99,519.451 3848,576.5C 3864.99,519.551 3881.82,462.551 3898.5,405.5C 3922.16,404.5 3945.82,404.167 3969.5,404.5C 3985.69,461.904 4002.19,519.237 4019,576.5C 4034.48,519.228 4049.65,461.895 4064.5,404.5C 4090.83,404.5 4117.17,404.5 4143.5,404.5C 4116.91,489.277 4089.91,573.943 4062.5,658.5C 4036.17,659.833 4009.83,659.833 3983.5,658.5C 3966.9,604.536 3950.4,550.536 3934,496.5C 3916.99,550.691 3900.49,605.024 3884.5,659.5C 3857.83,659.5 3831.17,659.5 3804.5,659.5C 3777.3,574.561 3750.3,489.561 3723.5,404.5 Z"/></g>
<g><path style="opacity:0.989" fill="#004789" d="M 884.5,556.5 C 885.664,593.998 885.831,631.664 885,669.5C 881.064,700.211 865.564,723.045 838.5,738C 769.167,782 699.833,826 630.5,870C 599.541,889.471 566.874,892.804 532.5,880C 526.675,877.255 521.008,874.255 515.5,871C 442.669,824.417 369.669,778.084 296.5,732C 276.39,717.962 264.223,698.795 260,674.5C 258.889,653.526 258.389,632.526 258.5,611.5C 258.833,593.5 259.167,575.5 259.5,557.5C 330.751,602.042 401.918,646.708 473,691.5C 475.37,731.164 477.704,770.831 480,810.5C 614.982,725.934 749.815,641.267 884.5,556.5 Z"/></g>
<g><path style="opacity:0.957" fill="#0082cb" d="M 1174.5,736.5 C 1192,734.431 1208,738.264 1222.5,748C 1225.22,750.382 1227.55,753.049 1229.5,756C 1224.37,761.464 1218.87,766.631 1213,771.5C 1202.84,760.226 1190.34,756.392 1175.5,760C 1155.93,768.641 1148.76,783.474 1154,804.5C 1161.4,821.124 1174.24,828.29 1192.5,826C 1200.87,824.129 1207.87,819.963 1213.5,813.5C 1218.52,818.352 1223.68,823.018 1229,827.5C 1229.67,828.5 1229.67,829.5 1229,830.5C 1213.61,845.738 1195.11,851.571 1173.5,848C 1137.92,839.407 1122.42,816.907 1127,780.5C 1133.42,755.572 1149.26,740.906 1174.5,736.5 Z"/></g>
<g><path style="opacity:0.962" fill="#0082cb" d="M 1452.5,736.5 C 1478.29,733.248 1498.79,741.914 1514,762.5C 1526.42,785.932 1524.76,808.265 1509,829.5C 1493.05,845.259 1473.89,851.426 1451.5,848C 1416.75,840.033 1400.92,818.199 1404,782.5C 1410.32,756.682 1426.48,741.349 1452.5,736.5 Z M 1457.5,758.5 C 1484.95,759.041 1497.45,773.041 1495,800.5C 1489.33,819.597 1476.5,828.097 1456.5,826C 1434.46,819.104 1425.96,804.27 1431,781.5C 1435.73,768.927 1444.56,761.26 1457.5,758.5 Z"/></g>
<g><path style="opacity:0.963" fill="#0082cb" d="M 1602.5,736.5 C 1626.66,733.517 1646.5,741.184 1662,759.5C 1676.58,783.51 1675.58,806.843 1659,829.5C 1643.05,845.259 1623.89,851.426 1601.5,848C 1575.91,843.475 1560.08,828.641 1554,803.5C 1550.66,766.803 1566.82,744.47 1602.5,736.5 Z M 1607.5,758.5 C 1634.95,759.041 1647.45,773.041 1645,800.5C 1639.33,819.597 1626.5,828.097 1606.5,826C 1584.46,819.096 1575.96,804.263 1581,781.5C 1585.73,768.927 1594.56,761.26 1607.5,758.5 Z"/></g>
<g><path style="opacity:0.956" fill="#0082cb" d="M 1738.5,736.5 C 1755.32,734.915 1771.32,737.748 1786.5,745C 1786.96,745.414 1787.29,745.914 1787.5,746.5C 1784.87,752.756 1782.53,759.089 1780.5,765.5C 1773.1,762.311 1765.43,759.811 1757.5,758C 1749.16,756.685 1741.16,757.685 1733.5,761C 1727.31,768.403 1728.65,774.07 1737.5,778C 1751.83,781.333 1765.83,785.666 1779.5,791C 1790.86,799.064 1794.69,809.898 1791,823.5C 1786.16,836.337 1776.99,844.17 1763.5,847C 1742.39,851.148 1722.39,848.148 1703.5,838C 1702.64,837.311 1701.98,836.478 1701.5,835.5C 1704.24,829.015 1707.24,822.681 1710.5,816.5C 1726.67,827.719 1744.01,830.219 1762.5,824C 1767.81,819.292 1767.81,814.626 1762.5,810C 1759.62,808.392 1756.62,807.059 1753.5,806C 1740.32,803.54 1727.65,799.54 1715.5,794C 1702.52,782.614 1700.02,769.114 1708,753.5C 1715.94,743.783 1726.1,738.116 1738.5,736.5 Z"/></g>
<g><path style="opacity:0.958" fill="#0082cb" d="M 2750.5,736.5 C 2766.06,734.993 2781.06,737.159 2795.5,743C 2797.3,743.972 2798.97,745.139 2800.5,746.5C 2798.06,753.198 2795.06,759.532 2791.5,765.5C 2777.11,756.916 2762.11,755.416 2746.5,761C 2741.24,766.076 2741.24,771.076 2746.5,776C 2760.38,780.639 2774.38,784.972 2788.5,789C 2805.06,798.831 2809.23,812.664 2801,830.5C 2794.97,839.105 2786.8,844.605 2776.5,847C 2757.55,850.448 2739.21,848.448 2721.5,841C 2718.51,839.685 2716.17,837.685 2714.5,835C 2717.03,828.582 2720.03,822.415 2723.5,816.5C 2738.89,827.147 2755.56,829.98 2773.5,825C 2781.73,817.35 2780.4,811.35 2769.5,807C 2755.36,804.051 2741.7,799.718 2728.5,794C 2718.06,786.467 2714.23,776.301 2717,763.5C 2719.16,755.349 2723.66,748.849 2730.5,744C 2736.88,740.379 2743.54,737.879 2750.5,736.5 Z"/></g>
<g><path style="opacity:0.958" fill="#0082cb" d="M 3471.5,736.5 C 3488.49,734.438 3504.16,737.938 3518.5,747C 3522.17,749.333 3525.17,752.333 3527.5,756C 3521.9,761.051 3516.4,766.218 3511,771.5C 3498.67,758.633 3484.17,755.466 3467.5,762C 3450.43,773.558 3445.59,789.058 3453,808.5C 3461.22,822.362 3473.39,828.195 3489.5,826C 3498.08,824.38 3505.08,820.214 3510.5,813.5C 3516.55,818.2 3522.21,823.367 3527.5,829C 3512.48,845.438 3493.81,851.771 3471.5,848C 3447.72,843.879 3432.22,830.379 3425,807.5C 3419.18,769.545 3434.68,745.878 3471.5,736.5 Z"/></g>
<g><path style="opacity:0.962" fill="#0082cb" d="M 3921.5,736.5 C 3940.37,734.3 3957.37,738.8 3972.5,750C 3993.81,772.475 3996.97,797.309 3982,824.5C 3966.11,843.916 3945.61,851.749 3920.5,848C 3885.72,839.96 3869.89,818.127 3873,782.5C 3879.3,756.7 3895.47,741.367 3921.5,736.5 Z M 3926.5,758.5 C 3954.76,759.003 3967.26,773.336 3964,801.5C 3957.81,819.857 3944.98,828.024 3925.5,826C 3905.84,820.197 3897.01,807.031 3899,786.5C 3902.36,771.307 3911.53,761.974 3926.5,758.5 Z"/></g>
<g><path style="opacity:0.969" fill="#0082cb" d="M 1265.5,738.5 C 1274.17,738.5 1282.83,738.5 1291.5,738.5C 1291.5,752.5 1291.5,766.5 1291.5,780.5C 1307.5,780.5 1323.5,780.5 1339.5,780.5C 1339.5,766.5 1339.5,752.5 1339.5,738.5C 1348.17,738.5 1356.83,738.5 1365.5,738.5C 1365.5,774.5 1365.5,810.5 1365.5,846.5C 1356.83,846.5 1348.17,846.5 1339.5,846.5C 1339.5,831.833 1339.5,817.167 1339.5,802.5C 1323.5,802.5 1307.5,802.5 1291.5,802.5C 1291.5,817.167 1291.5,831.833 1291.5,846.5C 1282.83,846.5 1274.17,846.5 1265.5,846.5C 1265.5,810.5 1265.5,774.5 1265.5,738.5 Z"/></g>
<g><path style="opacity:0.98" fill="#0082cb" d="M 1828.5,738.5 C 1855.83,738.5 1883.17,738.5 1910.5,738.5C 1910.5,745.5 1910.5,752.5 1910.5,759.5C 1891.5,759.5 1872.5,759.5 1853.5,759.5C 1853.5,766.833 1853.5,774.167 1853.5,781.5C 1870.17,781.5 1886.83,781.5 1903.5,781.5C 1903.5,788.167 1903.5,794.833 1903.5,801.5C 1886.83,801.5 1870.17,801.5 1853.5,801.5C 1853.5,809.5 1853.5,817.5 1853.5,825.5C 1873.17,825.5 1892.83,825.5 1912.5,825.5C 1912.5,832.5 1912.5,839.5 1912.5,846.5C 1884.5,846.5 1856.5,846.5 1828.5,846.5C 1828.5,810.5 1828.5,774.5 1828.5,738.5 Z"/></g>
<g><path style="opacity:0.973" fill="#0082cb" d="M 2002.5,738.5 C 2034.17,738.5 2065.83,738.5 2097.5,738.5C 2097.5,745.5 2097.5,752.5 2097.5,759.5C 2086.17,759.5 2074.83,759.5 2063.5,759.5C 2063.5,788.5 2063.5,817.5 2063.5,846.5C 2054.83,846.5 2046.17,846.5 2037.5,846.5C 2037.5,817.5 2037.5,788.5 2037.5,759.5C 2025.83,759.5 2014.17,759.5 2002.5,759.5C 2002.5,752.5 2002.5,745.5 2002.5,738.5 Z"/></g>
<g><path style="opacity:0.969" fill="#0082cb" d="M 2130.5,738.5 C 2139.17,738.5 2147.83,738.5 2156.5,738.5C 2156.5,752.5 2156.5,766.5 2156.5,780.5C 2172.5,780.5 2188.5,780.5 2204.5,780.5C 2204.5,766.5 2204.5,752.5 2204.5,738.5C 2213.17,738.5 2221.83,738.5 2230.5,738.5C 2230.5,774.5 2230.5,810.5 2230.5,846.5C 2221.83,846.5 2213.17,846.5 2204.5,846.5C 2204.5,831.833 2204.5,817.167 2204.5,802.5C 2188.5,802.5 2172.5,802.5 2156.5,802.5C 2156.5,817.167 2156.5,831.833 2156.5,846.5C 2147.83,846.5 2139.17,846.5 2130.5,846.5C 2130.5,810.5 2130.5,774.5 2130.5,738.5 Z"/></g>
<g><path style="opacity:0.964" fill="#0082cb" d="M 2274.5,738.5 C 2302.17,738.5 2329.83,738.5 2357.5,738.5C 2357.5,745.5 2357.5,752.5 2357.5,759.5C 2338.5,759.5 2319.5,759.5 2300.5,759.5C 2300.5,766.833 2300.5,774.167 2300.5,781.5C 2317.17,781.5 2333.83,781.5 2350.5,781.5C 2350.5,788.167 2350.5,794.833 2350.5,801.5C 2333.83,801.5 2317.17,801.5 2300.5,801.5C 2300.5,809.5 2300.5,817.5 2300.5,825.5C 2320.17,825.5 2339.83,825.5 2359.5,825.5C 2359.5,832.5 2359.5,839.5 2359.5,846.5C 2331.17,846.5 2302.83,846.5 2274.5,846.5C 2274.5,810.5 2274.5,774.5 2274.5,738.5 Z"/></g>
<g><path style="opacity:0.972" fill="#0082cb" d="M 2461.5,738.5 C 2483.5,738.333 2505.5,738.5 2527.5,739C 2553.99,744.141 2561.82,758.974 2551,783.5C 2548.8,786.04 2546.3,788.207 2543.5,790C 2557.64,796.775 2563.47,807.941 2561,823.5C 2557.68,835.485 2549.84,842.651 2537.5,845C 2512.2,846.442 2486.87,846.942 2461.5,846.5C 2461.5,810.5 2461.5,774.5 2461.5,738.5 Z M 2487.5,757.5 C 2498.54,757.181 2509.54,757.681 2520.5,759C 2529.37,761.979 2531.87,767.812 2528,776.5C 2526.27,778.617 2524.1,780.117 2521.5,781C 2510.22,782.383 2498.89,782.883 2487.5,782.5C 2487.5,774.167 2487.5,765.833 2487.5,757.5 Z M 2487.5,801.5 C 2500.56,801.078 2513.56,801.578 2526.5,803C 2534.63,806.399 2537.13,812.233 2534,820.5C 2531.9,823.467 2529.07,825.3 2525.5,826C 2512.88,827.374 2500.21,827.874 2487.5,827.5C 2487.5,818.833 2487.5,810.167 2487.5,801.5 Z"/></g>
<g><path style="opacity:0.97" fill="#0082cb" d="M 2599.5,738.5 C 2626.83,738.5 2654.17,738.5 2681.5,738.5C 2681.5,745.5 2681.5,752.5 2681.5,759.5C 2662.83,759.5 2644.17,759.5 2625.5,759.5C 2625.5,766.833 2625.5,774.167 2625.5,781.5C 2642.17,781.5 2658.83,781.5 2675.5,781.5C 2675.5,788.167 2675.5,794.833 2675.5,801.5C 2658.83,801.5 2642.17,801.5 2625.5,801.5C 2625.5,809.5 2625.5,817.5 2625.5,825.5C 2644.83,825.5 2664.17,825.5 2683.5,825.5C 2683.5,832.5 2683.5,839.5 2683.5,846.5C 2655.5,846.5 2627.5,846.5 2599.5,846.5C 2599.5,810.5 2599.5,774.5 2599.5,738.5 Z"/></g>
<g><path style="opacity:0.967" fill="#0082cb" d="M 2827.5,738.5 C 2859.17,738.5 2890.83,738.5 2922.5,738.5C 2922.5,745.5 2922.5,752.5 2922.5,759.5C 2910.83,759.5 2899.17,759.5 2887.5,759.5C 2887.5,788.5 2887.5,817.5 2887.5,846.5C 2878.83,846.5 2870.17,846.5 2861.5,846.5C 2861.5,817.5 2861.5,788.5 2861.5,759.5C 2850.17,759.5 2838.83,759.5 2827.5,759.5C 2827.5,752.5 2827.5,745.5 2827.5,738.5 Z"/></g>
<g><path style="opacity:0.972" fill="#0082cb" d="M 3018.5,738.5 C 3045.83,738.5 3073.17,738.5 3100.5,738.5C 3100.5,745.5 3100.5,752.5 3100.5,759.5C 3081.83,759.5 3063.17,759.5 3044.5,759.5C 3044.5,766.833 3044.5,774.167 3044.5,781.5C 3061.17,781.5 3077.83,781.5 3094.5,781.5C 3094.5,788.167 3094.5,794.833 3094.5,801.5C 3077.83,801.5 3061.17,801.5 3044.5,801.5C 3044.5,809.5 3044.5,817.5 3044.5,825.5C 3063.83,825.5 3083.17,825.5 3102.5,825.5C 3102.5,832.5 3102.5,839.5 3102.5,846.5C 3074.5,846.5 3046.5,846.5 3018.5,846.5C 3018.5,810.5 3018.5,774.5 3018.5,738.5 Z"/></g>
<g><path style="opacity:0.969" fill="#0082cb" d="M 3141.5,738.5 C 3162.17,738.333 3182.84,738.5 3203.5,739C 3241.08,747.293 3256.24,770.459 3249,808.5C 3241.84,829.989 3227,842.489 3204.5,846C 3183.5,846.5 3162.5,846.667 3141.5,846.5C 3141.5,810.5 3141.5,774.5 3141.5,738.5 Z M 3167.5,759.5 C 3176.84,759.334 3186.17,759.5 3195.5,760C 3217.09,764.314 3226.59,777.48 3224,799.5C 3220.63,814.2 3211.46,822.7 3196.5,825C 3186.84,825.5 3177.17,825.666 3167.5,825.5C 3167.5,803.5 3167.5,781.5 3167.5,759.5 Z"/></g>
<g><path style="opacity:0.962" fill="#0082cb" d="M 3287.5,738.5 C 3296.17,738.5 3304.83,738.5 3313.5,738.5C 3313.06,762.205 3313.56,785.872 3315,809.5C 3317.98,820.815 3325.31,826.482 3337,826.5C 3348.01,826.677 3355.34,821.677 3359,811.5C 3360.46,787.219 3360.96,762.885 3360.5,738.5C 3369.17,738.5 3377.83,738.5 3386.5,738.5C 3386.67,761.502 3386.5,784.502 3386,807.5C 3381.87,835.628 3365.53,849.294 3337,848.5C 3307.05,848.882 3290.72,834.215 3288,804.5C 3287.5,782.503 3287.33,760.503 3287.5,738.5 Z"/></g>
<g><path style="opacity:0.965" fill="#0082cb" d="M 3594.5,738.5 C 3603.42,738.183 3612.25,738.516 3621,739.5C 3636.56,774.952 3652.39,810.285 3668.5,845.5C 3659.19,846.498 3649.86,846.832 3640.5,846.5C 3637.93,838.848 3634.93,831.348 3631.5,824C 3615.16,823.167 3598.82,823.334 3582.5,824.5C 3579.59,831.724 3576.59,838.891 3573.5,846C 3564.5,846.667 3555.5,846.667 3546.5,846C 3562.64,810.215 3578.64,774.382 3594.5,738.5 Z M 3606.5,765.5 C 3607.79,766.058 3608.62,767.058 3609,768.5C 3613.64,780.098 3618.48,791.598 3623.5,803C 3612.82,803.832 3602.15,803.666 3591.5,802.5C 3596.8,790.248 3601.8,777.915 3606.5,765.5 Z"/></g>
<g><path style="opacity:0.973" fill="#0082cb" d="M 3681.5,738.5 C 3713.17,738.5 3744.83,738.5 3776.5,738.5C 3776.5,745.5 3776.5,752.5 3776.5,759.5C 3764.83,759.5 3753.17,759.5 3741.5,759.5C 3741.5,788.5 3741.5,817.5 3741.5,846.5C 3732.83,846.5 3724.17,846.5 3715.5,846.5C 3715.5,817.5 3715.5,788.5 3715.5,759.5C 3704.17,759.5 3692.83,759.5 3681.5,759.5C 3681.5,752.5 3681.5,745.5 3681.5,738.5 Z"/></g>
<g><path style="opacity:0.962" fill="#0082cb" d="M 3808.5,738.5 C 3817.17,738.5 3825.83,738.5 3834.5,738.5C 3834.5,774.5 3834.5,810.5 3834.5,846.5C 3825.83,846.5 3817.17,846.5 3808.5,846.5C 3808.5,810.5 3808.5,774.5 3808.5,738.5 Z"/></g>
<g><path style="opacity:0.983" fill="#0082cb" d="M 4029.5,738.5 C 4036.84,738.334 4044.17,738.5 4051.5,739C 4068.67,760.167 4085.83,781.333 4103,802.5C 4103.5,781.169 4103.67,759.836 4103.5,738.5C 4111.83,738.5 4120.17,738.5 4128.5,738.5C 4128.5,774.5 4128.5,810.5 4128.5,846.5C 4121.16,846.666 4113.83,846.5 4106.5,846C 4089.71,824.876 4072.54,804.042 4055,783.5C 4054.5,804.497 4054.33,825.497 4054.5,846.5C 4046.17,846.5 4037.83,846.5 4029.5,846.5C 4029.5,810.5 4029.5,774.5 4029.5,738.5 Z"/></g>
</svg>
