<?xml version="1.0" encoding="UTF-8"?>
<!DOCTYPE svg PUBLIC "-//W3C//DTD SVG 1.1//EN" "http://www.w3.org/Graphics/SVG/1.1/DTD/svg11.dtd">
<svg xmlns="http://www.w3.org/2000/svg" version="1.1" width="376px" height="165px" style="shape-rendering:geometricPrecision; text-rendering:geometricPrecision; image-rendering:optimizeQuality; fill-rule:evenodd; clip-rule:evenodd" xmlns:xlink="http://www.w3.org/1999/xlink">
<g><path style="opacity:0.952" fill="#fe0165" d="M 3.5,25.5 C 24.8333,25.5 46.1667,25.5 67.5,25.5C 67.7852,27.288 67.4519,28.9547 66.5,30.5C 53.4979,36.3303 42.3312,44.6636 33,55.5C 29.8561,60.5951 27.6895,66.0951 26.5,72C 26.9049,75.7394 28.9049,77.0727 32.5,76C 34.6231,70.3668 37.1231,64.8668 40,59.5C 49.4072,49.3685 60.5739,46.8685 73.5,52C 89.2119,61.816 92.7119,74.9827 84,91.5C 73.0189,104.361 60.0189,106.694 45,98.5C 41.5478,100.073 40.7144,102.573 42.5,106C 61.5852,115.686 77.7519,112.186 91,95.5C 101.455,75.8123 97.6215,59.3123 79.5,46C 76.326,44.2752 72.9927,42.9419 69.5,42C 68.4829,40.9505 68.3162,39.7839 69,38.5C 84.7067,31.2812 101.207,26.9479 118.5,25.5C 120.159,45.7179 117.659,65.3846 111,84.5C 101.5,106 86,121.5 64.5,131C 44.8098,138.282 24.4765,141.448 3.5,140.5C 3.5,102.167 3.5,63.8333 3.5,25.5 Z M 60.5,59.5 C 75.9559,62.421 80.7892,71.0876 75,85.5C 65.3631,95.0717 56.0298,94.7384 47,84.5C 42.6904,71.3281 47.1904,62.9948 60.5,59.5 Z"/></g>
<g><path style="opacity:0.946" fill="#fe0165" d="M 148.5,30.5 C 157.833,30.5 167.167,30.5 176.5,30.5C 176.149,33.2377 175.482,35.9044 174.5,38.5C 169.208,39.4948 163.875,39.8282 158.5,39.5C 158.5,43.1667 158.5,46.8333 158.5,50.5C 163.167,50.5 167.833,50.5 172.5,50.5C 172.5,53.5 172.5,56.5 172.5,59.5C 167.833,59.5 163.167,59.5 158.5,59.5C 158.5,66.8333 158.5,74.1667 158.5,81.5C 155.167,81.5 151.833,81.5 148.5,81.5C 148.5,64.5 148.5,47.5 148.5,30.5 Z"/></g>
<g><path style="opacity:0.942" fill="#fe0165" d="M 181.5,30.5 C 184.833,30.5 188.167,30.5 191.5,30.5C 191.333,42.8378 191.5,55.1712 192,67.5C 193.458,73.0589 196.958,74.8923 202.5,73C 204.487,71.6811 205.654,69.8477 206,67.5C 206.5,55.1712 206.667,42.8378 206.5,30.5C 209.833,30.5 213.167,30.5 216.5,30.5C 216.951,45.5717 216.451,60.5717 215,75.5C 210.958,80.6833 205.625,83.0167 199,82.5C 187.465,82.6307 181.465,76.964 181,65.5C 180.189,53.7574 180.356,42.0907 181.5,30.5 Z"/></g>
<g><path style="opacity:0.895" fill="#fe0165" d="M 221.5,30.5 C 232.833,30.5 244.167,30.5 255.5,30.5C 255.308,33.6008 254.642,36.6008 253.5,39.5C 250.232,40.487 246.898,40.8204 243.5,40.5C 243.667,53.8375 243.5,67.1708 243,80.5C 239.606,81.4558 236.106,81.7892 232.5,81.5C 232.5,67.8333 232.5,54.1667 232.5,40.5C 228.833,40.5 225.167,40.5 221.5,40.5C 221.5,37.1667 221.5,33.8333 221.5,30.5 Z"/></g>
<g><path style="opacity:0.942" fill="#fe0165" d="M 259.5,30.5 C 262.833,30.5 266.167,30.5 269.5,30.5C 269.333,42.8378 269.5,55.1712 270,67.5C 271.458,73.0589 274.958,74.8923 280.5,73C 282.487,71.6811 283.654,69.8477 284,67.5C 284.5,55.1712 284.667,42.8378 284.5,30.5C 288.106,30.2108 291.606,30.5442 295,31.5C 295.667,43.1667 295.667,54.8333 295,66.5C 294.06,77.4369 288.06,82.7702 277,82.5C 268.846,83.2607 263.18,79.9273 260,72.5C 259.5,58.504 259.333,44.504 259.5,30.5 Z"/></g>
<g><path style="opacity:0.935" fill="#fe0165" d="M 305.5,30.5 C 312.508,30.3337 319.508,30.5004 326.5,31C 331.667,32.1667 334.833,35.3333 336,40.5C 337.783,48.499 335.283,54.6657 328.5,59C 332.852,65.8717 336.519,73.0383 339.5,80.5C 336.211,81.5475 332.878,82.0475 329.5,82C 325.872,75.2449 322.372,68.4115 319,61.5C 317.989,60.6634 316.822,60.33 315.5,60.5C 315.5,67.5 315.5,74.5 315.5,81.5C 312.167,81.5 308.833,81.5 305.5,81.5C 305.5,64.5 305.5,47.5 305.5,30.5 Z M 315.5,39.5 C 318.187,39.3359 320.854,39.5026 323.5,40C 327.307,48.0575 324.64,52.2242 315.5,52.5C 315.5,48.1667 315.5,43.8333 315.5,39.5 Z"/></g>
<g><path style="opacity:0.899" fill="#fe0165" d="M 345.5,30.5 C 354.833,30.5 364.167,30.5 373.5,30.5C 373.452,33.3128 372.785,35.9795 371.5,38.5C 366.544,39.4941 361.544,39.8275 356.5,39.5C 356.5,43.1667 356.5,46.8333 356.5,50.5C 360.846,50.3343 365.179,50.501 369.5,51C 370.788,53.4665 370.788,55.9665 369.5,58.5C 365.217,59.4922 360.884,59.8256 356.5,59.5C 356.5,63.8333 356.5,68.1667 356.5,72.5C 362.167,72.5 367.833,72.5 373.5,72.5C 373.777,75.4475 373.444,78.2809 372.5,81C 363.506,81.4998 354.506,81.6664 345.5,81.5C 345.5,64.5 345.5,47.5 345.5,30.5 Z"/></g>
<g><path style="opacity:0.888" fill="#fe0165" d="M 57.5,66.5 C 70.2901,66.122 74.1234,71.7886 69,83.5C 61.782,88.3566 56.1153,87.0232 52,79.5C 50.8409,73.7895 52.6742,69.4562 57.5,66.5 Z"/></g>
<g><path style="opacity:0.9" fill="#fe0165" d="M 265.5,89.5 C 271.698,89.372 277.531,90.7054 283,93.5C 283.21,96.2686 282.377,98.7686 280.5,101C 276.647,100.613 272.814,99.7799 269,98.5C 262.532,99.9147 261.365,103.081 265.5,108C 271.251,110.289 276.418,113.455 281,117.5C 283.424,122.57 284.091,127.903 283,133.5C 279.946,139.953 274.779,143.286 267.5,143.5C 262.687,142.866 258.02,141.699 253.5,140C 252.477,137.226 252.477,134.393 253.5,131.5C 258.005,132.327 262.505,133.327 267,134.5C 272.239,133.694 274.239,130.694 273,125.5C 268.578,122.036 263.744,119.203 258.5,117C 251.902,110.826 250.736,103.659 255,95.5C 258.069,92.5545 261.569,90.5545 265.5,89.5 Z"/></g>
<g><path style="opacity:0.903" fill="#fe0165" d="M 182.5,90.5 C 184.792,90.2436 186.959,90.5769 189,91.5C 191.849,97.1978 194.682,102.864 197.5,108.5C 200.368,102.597 203.368,96.764 206.5,91C 210.308,90.2852 213.642,91.1185 216.5,93.5C 212,102.5 207.5,111.5 203,120.5C 202.5,127.492 202.334,134.492 202.5,141.5C 198.833,141.5 195.167,141.5 191.5,141.5C 191.666,134.492 191.5,127.492 191,120.5C 185.911,110.994 181.411,101.328 177.5,91.5C 179.415,91.7845 181.081,91.4511 182.5,90.5 Z"/></g>
<g><path style="opacity:0.96" fill="#fe0165" d="M 148.5,91.5 C 157.833,91.5 167.167,91.5 176.5,91.5C 176.244,93.9372 175.577,96.2706 174.5,98.5C 169.208,99.4948 163.875,99.8282 158.5,99.5C 158.5,103.167 158.5,106.833 158.5,110.5C 163.167,110.5 167.833,110.5 172.5,110.5C 172.5,113.5 172.5,116.5 172.5,119.5C 167.833,119.5 163.167,119.5 158.5,119.5C 158.5,123.833 158.5,128.167 158.5,132.5C 164.206,132.171 169.872,132.505 175.5,133.5C 176.788,136.034 176.788,138.534 175.5,141C 166.506,141.5 157.506,141.666 148.5,141.5C 148.5,124.833 148.5,108.167 148.5,91.5 Z"/></g>
<g><path style="opacity:0.918" fill="#fe0165" d="M 220.5,91.5 C 229.833,91.5 239.167,91.5 248.5,91.5C 248.425,94.2062 248.092,96.8728 247.5,99.5C 242.167,99.5 236.833,99.5 231.5,99.5C 231.5,103.167 231.5,106.833 231.5,110.5C 235.846,110.334 240.179,110.501 244.5,111C 245.444,113.719 245.777,116.552 245.5,119.5C 240.833,119.5 236.167,119.5 231.5,119.5C 231.5,123.833 231.5,128.167 231.5,132.5C 236.844,132.334 242.177,132.501 247.5,133C 248.444,135.719 248.777,138.552 248.5,141.5C 239.167,141.5 229.833,141.5 220.5,141.5C 220.5,124.833 220.5,108.167 220.5,91.5 Z"/></g>
</svg>
