<?xml version="1.0" encoding="UTF-8"?>
<!DOCTYPE svg PUBLIC "-//W3C//DTD SVG 1.1//EN" "http://www.w3.org/Graphics/SVG/1.1/DTD/svg11.dtd">
<svg xmlns="http://www.w3.org/2000/svg" version="1.1" width="652px" height="382px" style="shape-rendering:geometricPrecision; text-rendering:geometricPrecision; image-rendering:optimizeQuality; fill-rule:evenodd; clip-rule:evenodd" xmlns:xlink="http://www.w3.org/1999/xlink">
<g><path style="opacity:1" fill="#b32325" d="M 310.5,-0.5 C 320.5,-0.5 330.5,-0.5 340.5,-0.5C 366.058,2.61792 388.724,12.2846 408.5,28.5C 409.035,30.4456 410.368,31.4456 412.5,31.5C 416.833,35.1667 420.833,39.1667 424.5,43.5C 424.738,45.4044 425.738,46.7377 427.5,47.5C 428.5,47.8333 429.167,48.5 429.5,49.5C 429.427,51.0269 430.094,52.0269 431.5,52.5C 431.738,54.4044 432.738,55.7377 434.5,56.5C 434.427,58.0269 435.094,59.0269 436.5,59.5C 437.338,59.8417 437.672,60.5084 437.5,61.5C 437.427,63.0269 438.094,64.0269 439.5,64.5C 440.674,65.5137 441.34,66.847 441.5,68.5C 441.427,70.0269 442.094,71.0269 443.5,71.5C 445.716,75.2662 447.383,79.2662 448.5,83.5C 448.12,85.698 448.787,87.3646 450.5,88.5C 462.92,129.786 456.587,167.786 431.5,202.5C 430.094,202.973 429.427,203.973 429.5,205.5C 398.763,242.853 359.096,259.353 310.5,255C 304.588,254.385 298.921,253.218 293.5,251.5C 291.485,250.076 289.152,249.41 286.5,249.5C 284.035,249.233 281.701,248.566 279.5,247.5C 277.824,245.166 275.491,244.166 272.5,244.5C 267.516,242.674 262.849,240.341 258.5,237.5C 258.027,236.094 257.027,235.427 255.5,235.5C 255.027,234.094 254.027,233.427 252.5,233.5C 252.027,232.094 251.027,231.427 249.5,231.5C 247.596,231.262 246.262,230.262 245.5,228.5C 245.027,227.094 244.027,226.427 242.5,226.5C 241.5,226.167 240.833,225.5 240.5,224.5C 239.738,222.738 238.404,221.738 236.5,221.5C 208.959,196.404 194.959,165.07 194.5,127.5C 194.388,103.518 200.721,81.5179 213.5,61.5C 214.906,61.0269 215.573,60.0269 215.5,58.5C 216.906,58.0269 217.573,57.0269 217.5,55.5C 219.016,52.4669 221.016,49.8003 223.5,47.5C 225.262,46.7377 226.262,45.4044 226.5,43.5C 228.167,41.1667 230.167,39.1667 232.5,37.5C 235.764,35.9059 238.431,33.5725 240.5,30.5C 243.089,29.5806 245.089,27.914 246.5,25.5C 251.152,21.1688 256.486,17.8355 262.5,15.5C 264.027,15.573 265.027,14.9063 265.5,13.5C 269.866,10.9884 274.533,8.98838 279.5,7.5C 283.162,7.2766 286.495,6.2766 289.5,4.5C 296.364,2.1944 303.364,0.527732 310.5,-0.5 Z"/></g>
<g><path style="opacity:0.859" fill="#dc9376" d="M 289.5,4.5 C 286.495,6.2766 283.162,7.2766 279.5,7.5C 282.505,5.7234 285.838,4.7234 289.5,4.5 Z"/></g>
<g><path style="opacity:0.765" fill="#e2a688" d="M 265.5,13.5 C 265.027,14.9063 264.027,15.573 262.5,15.5C 262.973,14.0937 263.973,13.427 265.5,13.5 Z"/></g>
<g><path style="opacity:0.949" fill="#d8876b" d="M 246.5,25.5 C 245.089,27.914 243.089,29.5806 240.5,30.5C 241.911,28.086 243.911,26.4194 246.5,25.5 Z"/></g>
<g><path style="opacity:0.639" fill="#e3a68d" d="M 408.5,28.5 C 410.23,29.0256 411.564,30.0256 412.5,31.5C 410.368,31.4456 409.035,30.4456 408.5,28.5 Z"/></g>
<g><path style="opacity:0.91" fill="#d7846b" d="M 240.5,30.5 C 238.431,33.5725 235.764,35.9059 232.5,37.5C 234.569,34.4275 237.236,32.0941 240.5,30.5 Z"/></g>
<g><path style="opacity:0.671" fill="#e8b79c" d="M 226.5,43.5 C 226.262,45.4044 225.262,46.7377 223.5,47.5C 223.738,45.5956 224.738,44.2623 226.5,43.5 Z"/></g>
<g><path style="opacity:0.741" fill="#e6b298" d="M 424.5,43.5 C 426.262,44.2623 427.262,45.5956 427.5,47.5C 425.738,46.7377 424.738,45.4044 424.5,43.5 Z"/></g>
<g><path style="opacity:1" fill="#f4eb3b" d="M 413.5,47.5 C 416.743,52.4229 418.076,57.9229 417.5,64C 416.344,78.1474 411.177,90.6474 402,101.5C 395.022,108.809 387.689,115.809 380,122.5C 384.557,150.041 375.057,171.041 351.5,185.5C 346.017,193.8 342.183,202.8 340,212.5C 339.641,217.859 339.641,223.193 340,228.5C 337.806,231.181 334.973,232.681 331.5,233C 312.9,235.401 306.067,227.568 311,209.5C 308.395,200.961 304.729,192.961 300,185.5C 276.076,171.059 266.409,150.059 271,122.5C 256.426,112.264 245.093,99.2636 237,83.5C 234.551,77.0381 233.051,70.3714 232.5,63.5C 232.414,58.5105 233.581,53.8438 236,49.5C 237.105,70.2135 245.938,86.7135 262.5,99C 274.184,106.508 285.517,114.508 296.5,123C 309.98,134.806 315.48,149.64 313,167.5C 313.872,172.195 314.872,176.861 316,181.5C 319.261,188.481 324.428,190.314 331.5,187C 335.627,181.959 337.794,176.125 338,169.5C 335.287,149.295 341.787,132.795 357.5,120C 368.833,112 380.167,104 391.5,96C 406.853,83.4605 414.187,67.2938 413.5,47.5 Z"/></g>
<g><path style="opacity:0.427" fill="#e8bca2" d="M 429.5,49.5 C 430.906,49.9731 431.573,50.9731 431.5,52.5C 430.094,52.0269 429.427,51.0269 429.5,49.5 Z"/></g>
<g><path style="opacity:0.812" fill="#e4aa90" d="M 431.5,52.5 C 433.262,53.2623 434.262,54.5956 434.5,56.5C 432.738,55.7377 431.738,54.4044 431.5,52.5 Z"/></g>
<g><path style="opacity:0.545" fill="#e0a387" d="M 217.5,55.5 C 217.573,57.0269 216.906,58.0269 215.5,58.5C 215.427,56.9731 216.094,55.9731 217.5,55.5 Z"/></g>
<g><path style="opacity:0.345" fill="#ecc8ae" d="M 434.5,56.5 C 435.906,56.9731 436.573,57.9731 436.5,59.5C 435.094,59.0269 434.427,58.0269 434.5,56.5 Z"/></g>
<g><path style="opacity:0.502" fill="#e2a68a" d="M 215.5,58.5 C 215.573,60.0269 214.906,61.0269 213.5,61.5C 213.427,59.9731 214.094,58.9731 215.5,58.5 Z"/></g>
<g><path style="opacity:0.416" fill="#e7b89c" d="M 437.5,61.5 C 438.906,61.9731 439.573,62.9731 439.5,64.5C 438.094,64.0269 437.427,63.0269 437.5,61.5 Z"/></g>
<g><path style="opacity:0.231" fill="#eecab1" d="M 441.5,68.5 C 442.906,68.9731 443.573,69.9731 443.5,71.5C 442.094,71.0269 441.427,70.0269 441.5,68.5 Z"/></g>
<g><path style="opacity:0.859" fill="#e3a58b" d="M 448.5,83.5 C 449.537,84.9303 450.204,86.597 450.5,88.5C 448.787,87.3646 448.12,85.698 448.5,83.5 Z"/></g>
<g><path style="opacity:1" fill="#b32724" d="M 278.5,128.5 C 289.568,136.27 296.235,146.937 298.5,160.5C 297.514,164.482 296.514,168.482 295.5,172.5C 282.386,160.84 276.719,146.174 278.5,128.5 Z"/></g>
<g><path style="opacity:1" fill="#b42824" d="M 370.5,128.5 C 374.345,145.962 369.345,160.628 355.5,172.5C 351.471,160.492 353.304,149.492 361,139.5C 364.002,135.666 367.169,132 370.5,128.5 Z"/></g>
<g><path style="opacity:0.004" fill="#f4dccb" d="M 431.5,202.5 C 431.573,204.027 430.906,205.027 429.5,205.5C 429.427,203.973 430.094,202.973 431.5,202.5 Z"/></g>
<g><path style="opacity:0.639" fill="#ebc0a8" d="M 236.5,221.5 C 238.404,221.738 239.738,222.738 240.5,224.5C 238.596,224.262 237.262,223.262 236.5,221.5 Z"/></g>
<g><path style="opacity:0.463" fill="#e7b99e" d="M 242.5,226.5 C 244.027,226.427 245.027,227.094 245.5,228.5C 243.973,228.573 242.973,227.906 242.5,226.5 Z"/></g>
<g><path style="opacity:0.525" fill="#e4ad90" d="M 249.5,231.5 C 251.027,231.427 252.027,232.094 252.5,233.5C 250.973,233.573 249.973,232.906 249.5,231.5 Z"/></g>
<g><path style="opacity:0.427" fill="#e7b79c" d="M 252.5,233.5 C 254.027,233.427 255.027,234.094 255.5,235.5C 253.973,235.573 252.973,234.906 252.5,233.5 Z"/></g>
<g><path style="opacity:0.306" fill="#ecc6ae" d="M 255.5,235.5 C 257.027,235.427 258.027,236.094 258.5,237.5C 256.973,237.573 255.973,236.906 255.5,235.5 Z"/></g>
<g><path style="opacity:0.976" fill="#de947b" d="M 272.5,244.5 C 275.491,244.166 277.824,245.166 279.5,247.5C 276.843,247.065 274.509,246.065 272.5,244.5 Z"/></g>
<g><path style="opacity:0.886" fill="#df9d80" d="M 286.5,249.5 C 289.152,249.41 291.485,250.076 293.5,251.5C 290.848,251.59 288.515,250.924 286.5,249.5 Z"/></g>
<g><path style="opacity:0.666" fill="#ce7a60" d="M 81.5,301.5 C 58.5,300.167 35.5,300.167 12.5,301.5C 23.6467,300.168 35.1467,299.501 47,299.5C 58.8533,299.501 70.3533,300.168 81.5,301.5 Z"/></g>
<g><path style="opacity:0.663" fill="#d28368" d="M 153.5,300.5 C 134.473,300.218 115.473,300.551 96.5,301.5C 97.2625,300.732 98.2625,300.232 99.5,300C 117.671,299.171 135.671,299.338 153.5,300.5 Z"/></g>
<g><path style="opacity:0.668" fill="#d28368" d="M 240.5,300.5 C 221.473,300.218 202.473,300.551 183.5,301.5C 184.263,300.732 185.263,300.232 186.5,300C 204.671,299.171 222.671,299.338 240.5,300.5 Z"/></g>
<g><path style="opacity:0.666" fill="#f69b78" d="M 293.5,301.5 C 283.681,300.506 273.681,300.173 263.5,300.5C 263.5,301.833 263.5,303.167 263.5,304.5C 262.661,303.359 261.994,302.026 261.5,300.5C 272.5,299.167 283.5,299.167 294.5,300.5C 294.376,301.107 294.043,301.44 293.5,301.5 Z"/></g>
<g><path style="opacity:0.677" fill="#f28f69" d="M 391.5,300.5 C 371.167,300.5 350.833,300.5 330.5,300.5C 330.5,301.5 330.5,302.5 330.5,303.5C 329.751,302.469 329.085,301.302 328.5,300C 349.671,299.171 370.671,299.337 391.5,300.5 Z"/></g>
<g><path style="opacity:0.671" fill="#f3906a" d="M 462.5,303.5 C 461.596,302.791 461.263,301.791 461.5,300.5C 440.806,299.845 420.473,300.512 400.5,302.5C 399.596,301.791 399.263,300.791 399.5,299.5C 420.5,299.5 441.5,299.5 462.5,299.5C 462.5,300.833 462.5,302.167 462.5,303.5 Z"/></g>
<g><path style="opacity:0.667" fill="#d68b71" d="M 498.5,301.5 C 488.008,300.341 477.341,300.175 466.5,301C 467.252,301.671 467.586,302.504 467.5,303.5C 466.188,302.855 465.188,301.855 464.5,300.5C 476.167,299.167 487.833,299.167 499.5,300.5C 499.376,301.107 499.043,301.44 498.5,301.5 Z"/></g>
<g><path style="opacity:0.674" fill="#d58b6f" d="M 551.5,302.5 C 546.604,300.554 541.271,299.887 535.5,300.5C 535.795,302.735 535.461,304.735 534.5,306.5C 534.5,304.167 534.5,301.833 534.5,299.5C 540.842,299.334 547.175,299.5 553.5,300C 552.934,300.995 552.267,301.828 551.5,302.5 Z"/></g>
<g><path style="opacity:0.668" fill="#d07f64" d="M 593.5,300.5 C 580.656,300.171 567.989,300.505 555.5,301.5C 554.957,301.44 554.624,301.107 554.5,300.5C 567.661,299.175 580.661,299.175 593.5,300.5 Z"/></g>
<g><path style="opacity:0.664" fill="#d89176" d="M 635.5,302.5 C 633.429,301.191 630.929,300.525 628,300.5C 625.31,300.503 622.81,300.836 620.5,301.5C 619.957,301.44 619.624,301.107 619.5,300.5C 625.5,299.167 631.5,299.167 637.5,300.5C 637.145,301.522 636.478,302.189 635.5,302.5 Z"/></g>
<g><path style="opacity:0.999" fill="#b72f2b" d="M 81.5,301.5 C 82.3686,303.717 82.702,306.05 82.5,308.5C 82.7845,310.415 82.4511,312.081 81.5,313.5C 74.9419,311.953 68.2753,311.286 61.5,311.5C 61.2044,330.534 61.5377,349.534 62.5,368.5C 52.6806,369.494 42.6806,369.827 32.5,369.5C 32.5,368.167 32.5,366.833 32.5,365.5C 32.5,347.5 32.5,329.5 32.5,311.5C 25.7132,311.201 19.0465,311.868 12.5,313.5C 11.5489,312.081 11.2155,310.415 11.5,308.5C 11.298,306.05 11.6314,303.717 12.5,301.5C 35.5,300.167 58.5,300.167 81.5,301.5 Z"/></g>
<g><path style="opacity:1" fill="#b62e2b" d="M 153.5,300.5 C 154.959,300.433 156.292,300.766 157.5,301.5C 158.785,303.452 160.451,305.118 162.5,306.5C 163.338,306.842 163.672,307.508 163.5,308.5C 164.441,325.139 164.775,341.805 164.5,358.5C 163.092,364.409 159.426,368.243 153.5,370C 135.833,370.667 118.167,370.667 100.5,370C 99.0993,369.59 97.766,369.09 96.5,368.5C 96.0269,367.094 95.0269,366.427 93.5,366.5C 90.1042,363.709 88.2709,360.042 88,355.5C 87.3333,341.833 87.3333,328.167 88,314.5C 88.1558,311.809 88.9891,309.476 90.5,307.5C 91.9063,307.027 92.573,306.027 92.5,304.5C 93.2623,302.738 94.5956,301.738 96.5,301.5C 115.473,300.551 134.473,300.218 153.5,300.5 Z M 120.5,311.5 C 126.196,311.025 131.696,311.692 137,313.5C 137.823,328.075 137.656,342.575 136.5,357C 129.918,357.81 123.418,357.643 117,356.5C 116.333,342.167 116.333,327.833 117,313.5C 118.302,312.915 119.469,312.249 120.5,311.5 Z"/></g>
<g><path style="opacity:1" fill="#b62c2a" d="M 240.5,300.5 C 241.959,300.433 243.292,300.766 244.5,301.5C 245.326,303.264 246.659,304.598 248.5,305.5C 250.694,307.221 251.861,309.555 252,312.5C 252.667,327.5 252.667,342.5 252,357.5C 250.61,363.891 246.776,368.058 240.5,370C 222.833,370.667 205.167,370.667 187.5,370C 185.942,369.79 184.609,369.29 183.5,368.5C 183.027,367.094 182.027,366.427 180.5,366.5C 177.393,363.96 175.56,360.627 175,356.5C 174.333,342.167 174.333,327.833 175,313.5C 175.656,307.822 178.489,303.822 183.5,301.5C 202.473,300.551 221.473,300.218 240.5,300.5 Z M 207.5,311.5 C 211.846,311.334 216.179,311.501 220.5,312C 222.061,312.318 223.228,313.151 224,314.5C 224.667,328.167 224.667,341.833 224,355.5C 223.5,356 223,356.5 222.5,357C 216.5,357.667 210.5,357.667 204.5,357C 204,356.5 203.5,356 203,355.5C 202.333,341.833 202.333,328.167 203,314.5C 204.409,313.219 205.909,312.219 207.5,311.5 Z"/></g>
<g><path style="opacity:0.999" fill="#ef4332" d="M 293.5,301.5 C 293.737,302.791 293.404,303.791 292.5,304.5C 291.503,322.326 291.17,340.326 291.5,358.5C 301.839,358.666 312.172,358.5 322.5,358C 323.416,357.722 324.082,357.222 324.5,356.5C 325.451,357.919 325.784,359.585 325.5,361.5C 325.675,363.621 325.341,365.621 324.5,367.5C 314.227,368.81 303.727,369.476 293,369.5C 282.661,369.5 272.494,369.167 262.5,368.5C 263.467,347.2 263.8,325.867 263.5,304.5C 263.5,303.167 263.5,301.833 263.5,300.5C 273.681,300.173 283.681,300.506 293.5,301.5 Z"/></g>
<g><path style="opacity:1" fill="#ef4332" d="M 391.5,300.5 C 392.544,304.56 393.544,308.727 394.5,313C 382.904,311.851 371.237,311.351 359.5,311.5C 358.511,316.975 358.178,322.642 358.5,328.5C 367.017,328.826 375.35,328.493 383.5,327.5C 385.042,326.699 386.708,326.366 388.5,326.5C 390.436,330.715 391.103,335.381 390.5,340.5C 389.167,340.5 387.833,340.5 386.5,340.5C 385.833,340.5 385.167,340.5 384.5,340.5C 376.016,339.507 367.349,339.174 358.5,339.5C 358.5,345.833 358.5,352.167 358.5,358.5C 368.681,358.827 378.681,358.494 388.5,357.5C 389.167,357.5 389.833,357.5 390.5,357.5C 391.5,357.5 392.5,357.5 393.5,357.5C 393.5,359.833 393.5,362.167 393.5,364.5C 393.5,364.833 393.5,365.167 393.5,365.5C 392.566,366.568 392.232,367.901 392.5,369.5C 371.833,369.5 351.167,369.5 330.5,369.5C 330.5,368.5 330.5,367.5 330.5,366.5C 330.5,345.5 330.5,324.5 330.5,303.5C 330.5,302.5 330.5,301.5 330.5,300.5C 350.833,300.5 371.167,300.5 391.5,300.5 Z"/></g>
<g><path style="opacity:1" fill="#ef4734" d="M 462.5,303.5 C 463.461,305.265 463.795,307.265 463.5,309.5C 463.5,310.5 463.5,311.5 463.5,312.5C 462.5,312.5 461.5,312.5 460.5,312.5C 450.185,311.733 439.852,311.399 429.5,311.5C 429.5,316.833 429.5,322.167 429.5,327.5C 439.527,327.699 449.527,327.366 459.5,326.5C 460.486,330.97 460.819,335.637 460.5,340.5C 459.167,340.5 457.833,340.5 456.5,340.5C 447.5,340.5 438.5,340.5 429.5,340.5C 429.5,346.167 429.5,351.833 429.5,357.5C 440.167,357.5 450.833,357.5 461.5,357.5C 462.5,357.5 463.5,357.5 464.5,357.5C 464.5,358.833 464.5,360.167 464.5,361.5C 464.795,363.735 464.461,365.735 463.5,367.5C 453.06,368.81 442.393,369.477 431.5,369.5C 420.811,369.499 410.478,368.832 400.5,367.5C 401.833,345.833 401.833,324.167 400.5,302.5C 420.473,300.512 440.806,299.845 461.5,300.5C 461.263,301.791 461.596,302.791 462.5,303.5 Z"/></g>
<g><path style="opacity:1" fill="#b7302c" d="M 498.5,301.5 C 498.678,304.216 499.178,306.883 500,309.5C 505.272,323.819 510.439,338.152 515.5,352.5C 516.301,354.793 516.968,354.46 517.5,351.5C 522.885,336.396 528.552,321.396 534.5,306.5C 535.461,304.735 535.795,302.735 535.5,300.5C 541.271,299.887 546.604,300.554 551.5,302.5C 542.287,324.157 533.287,345.824 524.5,367.5C 514.09,369.44 503.423,370.107 492.5,369.5C 483.796,347.731 475.462,325.731 467.5,303.5C 467.586,302.504 467.252,301.671 466.5,301C 477.341,300.175 488.008,300.341 498.5,301.5 Z"/></g>
<g><path style="opacity:0.999" fill="#b52b29" d="M 593.5,300.5 C 596.008,304.182 598.008,308.182 599.5,312.5C 599.427,314.027 600.094,315.027 601.5,315.5C 602.11,316.391 602.443,317.391 602.5,318.5C 602.427,320.027 603.094,321.027 604.5,321.5C 604.5,321.833 604.5,322.167 604.5,322.5C 604.427,324.027 605.094,325.027 606.5,325.5C 606.025,328.313 607.025,330.313 609.5,331.5C 613.675,338.516 617.341,345.849 620.5,353.5C 620.461,354.756 620.961,355.756 622,356.5C 622.829,338.662 622.662,320.995 621.5,303.5C 620.662,303.158 620.328,302.492 620.5,301.5C 622.81,300.836 625.31,300.503 628,300.5C 630.929,300.525 633.429,301.191 635.5,302.5C 634.71,303.609 634.21,304.942 634,306.5C 633.5,327.497 633.333,348.497 633.5,369.5C 621.833,369.5 610.167,369.5 598.5,369.5C 588.419,351.674 579.086,333.34 570.5,314.5C 570.539,313.244 570.039,312.244 569,311.5C 568.171,329.005 568.338,346.338 569.5,363.5C 569.261,365.467 569.594,367.301 570.5,369C 565.316,369.816 560.316,369.65 555.5,368.5C 556.833,346.167 556.833,323.833 555.5,301.5C 567.989,300.505 580.656,300.171 593.5,300.5 Z"/></g>
<g><path style="opacity:0.58" fill="#e6ae95" d="M 157.5,301.5 C 160.189,302.189 161.856,303.856 162.5,306.5C 160.451,305.118 158.785,303.452 157.5,301.5 Z"/></g>
<g><path style="opacity:0.584" fill="#e4a990" d="M 244.5,301.5 C 246.773,301.957 248.106,303.29 248.5,305.5C 246.659,304.598 245.326,303.264 244.5,301.5 Z"/></g>
<g><path style="opacity:0.475" fill="#e4ab90" d="M 92.5,304.5 C 92.573,306.027 91.9063,307.027 90.5,307.5C 90.427,305.973 91.0937,304.973 92.5,304.5 Z"/></g>
<g><path style="opacity:0.451" fill="#eac5a8" d="M 11.5,308.5 C 11.2155,310.415 11.5489,312.081 12.5,313.5C 12.44,314.043 12.1067,314.376 11.5,314.5C 10.2072,312.364 10.2072,310.364 11.5,308.5 Z"/></g>
<g><path style="opacity:0.03" fill="#fbf8e8" d="M 621.5,303.5 C 622.662,320.995 622.829,338.662 622,356.5C 620.961,355.756 620.461,354.756 620.5,353.5C 621.497,337.008 621.83,320.342 621.5,303.5 Z"/></g>
<g><path style="opacity:0.811" fill="#cc6e53" d="M 635.5,302.5 C 634.553,325.145 634.22,347.811 634.5,370.5C 622.322,370.828 610.322,370.495 598.5,369.5C 610.167,369.5 621.833,369.5 633.5,369.5C 633.333,348.497 633.5,327.497 634,306.5C 634.21,304.942 634.71,303.609 635.5,302.5 Z"/></g>
<g><path style="opacity:0.486" fill="#ebc7ae" d="M 82.5,308.5 C 83.7928,310.364 83.7928,312.364 82.5,314.5C 81.8933,314.376 81.56,314.043 81.5,313.5C 82.4511,312.081 82.7845,310.415 82.5,308.5 Z"/></g>
<g><path style="opacity:0.329" fill="#fad5b4" d="M 463.5,309.5 C 464.434,310.568 464.768,311.901 464.5,313.5C 462.901,313.768 461.568,313.434 460.5,312.5C 461.5,312.5 462.5,312.5 463.5,312.5C 463.5,311.5 463.5,310.5 463.5,309.5 Z"/></g>
<g><path style="opacity:0.668" fill="#ce7a5f" d="M 570.5,314.5 C 569.504,330.658 569.17,346.991 569.5,363.5C 568.338,346.338 568.171,329.005 569,311.5C 570.039,312.244 570.539,313.244 570.5,314.5 Z"/></g>
<g><path style="opacity:0.224" fill="#eecbb3" d="M 599.5,312.5 C 600.906,312.973 601.573,313.973 601.5,315.5C 600.094,315.027 599.427,314.027 599.5,312.5 Z"/></g>
<g><path style="opacity:0.907" fill="#db856f" d="M 163.5,308.5 C 165.059,311.868 165.892,315.535 166,319.5C 166.167,324.667 166.333,329.833 166.5,335C 166.662,343.056 165.995,350.889 164.5,358.5C 164.775,341.805 164.441,325.139 163.5,308.5 Z"/></g>
<g><path style="opacity:0.267" fill="#ecc4ab" d="M 602.5,318.5 C 603.906,318.973 604.573,319.973 604.5,321.5C 603.094,321.027 602.427,320.027 602.5,318.5 Z"/></g>
<g><path style="opacity:0.271" fill="#ecc5ab" d="M 604.5,322.5 C 605.906,322.973 606.573,323.973 606.5,325.5C 605.094,325.027 604.427,324.027 604.5,322.5 Z"/></g>
<g><path style="opacity:0.134" fill="#fbe4ca" d="M 388.5,326.5 C 389.209,325.596 390.209,325.263 391.5,325.5C 391.5,330.833 391.5,336.167 391.5,341.5C 389.585,341.784 387.919,341.451 386.5,340.5C 387.833,340.5 389.167,340.5 390.5,340.5C 391.103,335.381 390.436,330.715 388.5,326.5 Z"/></g>
<g><path style="opacity:0.576" fill="#f6a989" d="M 459.5,326.5 C 459.56,325.957 459.893,325.624 460.5,325.5C 461.495,330.792 461.828,336.125 461.5,341.5C 459.585,341.784 457.919,341.451 456.5,340.5C 457.833,340.5 459.167,340.5 460.5,340.5C 460.819,335.637 460.486,330.97 459.5,326.5 Z"/></g>
<g><path style="opacity:0.508" fill="#f6b08d" d="M 359.5,311.5 C 359.5,316.833 359.5,322.167 359.5,327.5C 367.5,327.5 375.5,327.5 383.5,327.5C 375.35,328.493 367.017,328.826 358.5,328.5C 358.178,322.642 358.511,316.975 359.5,311.5 Z"/></g>
<g><path style="opacity:0.98" fill="#da8b73" d="M 606.5,325.5 C 607.492,327.456 608.492,329.456 609.5,331.5C 607.025,330.313 606.025,328.313 606.5,325.5 Z"/></g>
<g><path style="opacity:0.349" fill="#eccdaf" d="M 517.5,351.5 C 516.968,354.46 516.301,354.793 515.5,352.5C 516.167,352.167 516.833,351.833 517.5,351.5 Z"/></g>
<g><path style="opacity:0.682" fill="#fbc8a6" d="M 464.5,361.5 C 464.5,360.167 464.5,358.833 464.5,357.5C 463.5,357.5 462.5,357.5 461.5,357.5C 462.531,356.751 463.698,356.085 465,355.5C 465.789,357.712 465.622,359.712 464.5,361.5 Z"/></g>
<g><path style="opacity:0.068" fill="#fce9ca" d="M 292.5,304.5 C 292.5,322.167 292.5,339.833 292.5,357.5C 303.205,357.763 313.872,357.43 324.5,356.5C 324.082,357.222 323.416,357.722 322.5,358C 312.172,358.5 301.839,358.666 291.5,358.5C 291.17,340.326 291.503,322.326 292.5,304.5 Z"/></g>
<g><path style="opacity:0.451" fill="#fbd1b3" d="M 324.5,356.5 C 324.56,355.957 324.893,355.624 325.5,355.5C 326.793,357.636 326.793,359.636 325.5,361.5C 325.784,359.585 325.451,357.919 324.5,356.5 Z"/></g>
<g><path style="opacity:0.063" fill="#fbedce" d="M 384.5,340.5 C 376.167,340.5 367.833,340.5 359.5,340.5C 359.5,346.167 359.5,351.833 359.5,357.5C 369.167,357.5 378.833,357.5 388.5,357.5C 378.681,358.494 368.681,358.827 358.5,358.5C 358.5,352.167 358.5,345.833 358.5,339.5C 367.349,339.174 376.016,339.507 384.5,340.5 Z"/></g>
<g><path style="opacity:1" fill="#fcaf8d" d="M 393.5,364.5 C 393.5,362.167 393.5,359.833 393.5,357.5C 392.5,357.5 391.5,357.5 390.5,357.5C 391.878,356.766 393.378,356.099 395,355.5C 395.137,358.68 394.637,361.68 393.5,364.5 Z"/></g>
<g><path style="opacity:0.325" fill="#ecc4ad" d="M 93.5,366.5 C 95.0269,366.427 96.0269,367.094 96.5,368.5C 94.9731,368.573 93.9731,367.906 93.5,366.5 Z"/></g>
<g><path style="opacity:0.329" fill="#ebc1a9" d="M 180.5,366.5 C 182.027,366.427 183.027,367.094 183.5,368.5C 181.973,368.573 180.973,367.906 180.5,366.5 Z"/></g>
<g><path style="opacity:0.501" fill="#dea389" d="M 32.5,365.5 C 32.5,366.833 32.5,368.167 32.5,369.5C 42.6806,369.827 52.6806,369.494 62.5,368.5C 63.0431,368.56 63.3764,368.893 63.5,369.5C 52.5,370.833 41.5,370.833 30.5,369.5C 30.9943,367.974 31.661,366.641 32.5,365.5 Z"/></g>
<g><path style="opacity:0.519" fill="#f5ad8a" d="M 324.5,367.5 C 324.5,368.5 324.5,369.5 324.5,370.5C 303.489,370.833 282.489,370.5 261.5,369.5C 261.624,368.893 261.957,368.56 262.5,368.5C 272.494,369.167 282.661,369.5 293,369.5C 303.727,369.476 314.227,368.81 324.5,367.5 Z"/></g>
<g><path style="opacity:0.517" fill="#f6af8d" d="M 393.5,365.5 C 393.5,367.167 393.5,368.833 393.5,370.5C 371.831,370.667 350.164,370.5 328.5,370C 329.085,368.698 329.751,367.531 330.5,366.5C 330.5,367.5 330.5,368.5 330.5,369.5C 351.167,369.5 371.833,369.5 392.5,369.5C 392.232,367.901 392.566,366.568 393.5,365.5 Z"/></g>
<g><path style="opacity:0.514" fill="#f5ad8a" d="M 400.5,367.5 C 410.478,368.832 420.811,369.499 431.5,369.5C 442.393,369.477 453.06,368.81 463.5,367.5C 463.5,368.5 463.5,369.5 463.5,370.5C 442.167,370.5 420.833,370.5 399.5,370.5C 399.263,369.209 399.596,368.209 400.5,367.5 Z"/></g>
<g><path style="opacity:0.508" fill="#dda388" d="M 524.5,367.5 C 524.5,368.5 524.5,369.5 524.5,370.5C 513.654,370.828 502.987,370.494 492.5,369.5C 503.423,370.107 514.09,369.44 524.5,367.5 Z"/></g>
<g><path style="opacity:0.508" fill="#dea186" d="M 569.5,363.5 C 570.269,365.667 571.269,367.834 572.5,370C 566.472,370.83 560.472,370.664 554.5,369.5C 554.624,368.893 554.957,368.56 555.5,368.5C 560.316,369.65 565.316,369.816 570.5,369C 569.594,367.301 569.261,365.467 569.5,363.5 Z"/></g>
</svg>
