<?xml version="1.0" encoding="UTF-8"?>
<!DOCTYPE svg PUBLIC "-//W3C//DTD SVG 1.1//EN" "http://www.w3.org/Graphics/SVG/1.1/DTD/svg11.dtd">
<svg xmlns="http://www.w3.org/2000/svg" version="1.1" width="591px" height="591px" style="shape-rendering:geometricPrecision; text-rendering:geometricPrecision; image-rendering:optimizeQuality; fill-rule:evenodd; clip-rule:evenodd" xmlns:xlink="http://www.w3.org/1999/xlink">
<g><path style="opacity:0.158" fill="#6458e4" d="M 138.5,196.5 C 145.5,196.5 152.5,196.5 159.5,196.5C 159.5,198.167 159.5,199.833 159.5,201.5C 152.557,200.573 145.557,200.24 138.5,200.5C 138.5,199.167 138.5,197.833 138.5,196.5 Z"/></g>
<g><path style="opacity:0.15" fill="#5563e8" d="M 159.5,196.5 C 164.051,197.384 168.385,198.717 172.5,200.5C 172.5,201.833 172.5,203.167 172.5,204.5C 168.282,203.029 163.949,202.029 159.5,201.5C 159.5,199.833 159.5,198.167 159.5,196.5 Z"/></g>
<g><path style="opacity:0.147" fill="#7e46dc" d="M 138.5,196.5 C 138.5,197.833 138.5,199.167 138.5,200.5C 130.749,202.192 123.083,204.525 115.5,207.5C 114.599,206.71 113.932,205.71 113.5,204.5C 121.227,200.259 129.561,197.592 138.5,196.5 Z"/></g>
<g><path style="opacity:0.905" fill="#2b398e" d="M 209.5,200.5 C 218.657,199.489 222.49,203.489 221,212.5C 216.62,217.343 211.954,217.677 207,213.5C 204.458,208.438 205.292,204.105 209.5,200.5 Z"/></g>
<g><path style="opacity:0.949" fill="#2b388e" d="M 70.5,276.5 C 71.0218,279.568 71.8551,282.568 73,285.5C 74.5234,283.431 75.3568,281.097 75.5,278.5C 79.2299,269.643 82.5633,260.643 85.5,251.5C 87.8337,249.824 88.8337,247.491 88.5,244.5C 91.0349,237.562 93.3682,230.562 95.5,223.5C 96.1667,223.5 96.5,223.167 96.5,222.5C 97.6976,219.574 98.6976,216.574 99.5,213.5C 100.572,204.746 105.239,201.746 113.5,204.5C 113.932,205.71 114.599,206.71 115.5,207.5C 115.599,210.237 115.265,212.904 114.5,215.5C 113.108,218.007 112.108,220.673 111.5,223.5C 109.891,227.054 108.558,230.721 107.5,234.5C 101.509,247.807 96.5088,261.474 92.5,275.5C 90.3987,278.797 89.0653,282.463 88.5,286.5C 86.4214,289.111 85.0881,292.111 84.5,295.5C 83.304,298.421 82.304,301.421 81.5,304.5C 80.4625,305.93 79.7959,307.597 79.5,309.5C 74.994,312.496 70.8273,312.162 67,308.5C 55.3333,277.167 43.6667,245.833 32,214.5C 30.5821,204.25 34.5821,201.25 44,205.5C 52.7641,229.304 61.5975,252.971 70.5,276.5 Z M 95.5,223.5 C 93.3682,230.562 91.0349,237.562 88.5,244.5C 86.7073,246.426 85.7073,248.759 85.5,251.5C 82.5633,260.643 79.2299,269.643 75.5,278.5C 74.4394,264.47 77.1061,251.136 83.5,238.5C 86.779,232.953 90.779,227.953 95.5,223.5 Z"/></g>
<g><path style="opacity:0.918" fill="#2b398e" d="M 368.5,203.5 C 392.59,203.02 416.59,203.52 440.5,205C 442.478,207.497 442.978,210.331 442,213.5C 441.5,215.333 440.333,216.5 438.5,217C 419.836,217.5 401.17,217.667 382.5,217.5C 382.5,229.5 382.5,241.5 382.5,253.5C 397.504,253.333 412.504,253.5 427.5,254C 431.629,256.631 432.462,260.131 430,264.5C 428.829,265.893 427.329,266.727 425.5,267C 411.171,267.5 396.837,267.667 382.5,267.5C 382.946,281.24 382.446,294.907 381,308.5C 378.441,311.349 375.274,312.183 371.5,311C 369.513,309.681 368.346,307.848 368,305.5C 367.174,271.429 367.341,237.429 368.5,203.5 Z"/></g>
<g><path style="opacity:0.926" fill="#2b398e" d="M 457.5,203.5 C 463.661,202.331 468.494,204.331 472,209.5C 483.667,224.5 495.333,239.5 507,254.5C 519.954,238.09 532.787,221.59 545.5,205C 549.714,202.731 553.547,203.231 557,206.5C 558.132,223.958 558.632,241.458 558.5,259C 558.333,274.833 558.167,290.667 558,306.5C 557.15,310.102 554.817,311.769 551,311.5C 548.333,311.833 546.333,310.833 545,308.5C 544.667,281.833 544.333,255.167 544,228.5C 532.833,242.333 521.667,256.167 510.5,270C 506.102,271.378 502.602,270.212 500,266.5C 490.242,253.32 480.242,240.32 470,227.5C 470.376,253.828 470.376,280.161 470,306.5C 466.937,311.869 462.771,312.869 457.5,309.5C 457,308.5 456.5,307.5 456,306.5C 455.833,289.5 455.667,272.5 455.5,255.5C 455.514,237.948 456.18,220.615 457.5,203.5 Z"/></g>
<g><path style="opacity:0.288" fill="#734ddf" d="M 151.5,206.5 C 151.5,208.5 151.5,210.5 151.5,212.5C 143.67,211.815 136.004,212.815 128.5,215.5C 128.5,213.5 128.5,211.5 128.5,209.5C 136.029,207.6 143.696,206.6 151.5,206.5 Z"/></g>
<g><path style="opacity:0.293" fill="#5464e9" d="M 151.5,206.5 C 159.622,207.113 167.289,209.113 174.5,212.5C 174.5,214.167 174.5,215.833 174.5,217.5C 167.159,214.431 159.492,212.765 151.5,212.5C 151.5,210.5 151.5,208.5 151.5,206.5 Z"/></g>
<g><path style="opacity:0.154" fill="#4171ef" d="M 172.5,200.5 C 182.71,203.389 191.71,208.389 199.5,215.5C 199.5,217.5 199.5,219.5 199.5,221.5C 191.648,214.07 182.648,208.404 172.5,204.5C 172.5,203.167 172.5,201.833 172.5,200.5 Z"/></g>
<g><path style="opacity:0.289" fill="#863fd9" d="M 128.5,209.5 C 128.5,211.5 128.5,213.5 128.5,215.5C 122.409,217.38 116.743,220.047 111.5,223.5C 112.108,220.673 113.108,218.007 114.5,215.5C 118.935,212.949 123.601,210.949 128.5,209.5 Z"/></g>
<g><path style="opacity:0.287" fill="#446fee" d="M 174.5,212.5 C 179.165,213.828 183.165,216.161 186.5,219.5C 186.5,221.5 186.5,223.5 186.5,225.5C 182.463,222.82 178.463,220.154 174.5,217.5C 174.5,215.833 174.5,214.167 174.5,212.5 Z"/></g>
<g><path style="opacity:0.425" fill="#744ddf" d="M 149.5,217.5 C 149.5,219.5 149.5,221.5 149.5,223.5C 143.313,223.471 137.313,224.471 131.5,226.5C 131.5,224.5 131.5,222.5 131.5,220.5C 137.155,218.224 143.155,217.224 149.5,217.5 Z"/></g>
<g><path style="opacity:0.434" fill="#5960e7" d="M 149.5,217.5 C 155.031,217.643 160.365,218.643 165.5,220.5C 165.5,222.5 165.5,224.5 165.5,226.5C 160.258,225.071 154.925,224.071 149.5,223.5C 149.5,221.5 149.5,219.5 149.5,217.5 Z"/></g>
<g><path style="opacity:0.145" fill="#9d2fd2" d="M 99.5,213.5 C 98.6976,216.574 97.6976,219.574 96.5,222.5C 95.8333,222.5 95.5,222.833 95.5,223.5C 90.779,227.953 86.779,232.953 83.5,238.5C 83.5,236.167 83.5,233.833 83.5,231.5C 87.0404,223.957 92.3737,217.957 99.5,213.5 Z"/></g>
<g><path style="opacity:0.428" fill="#4a6bec" d="M 165.5,220.5 C 168.912,221.075 171.912,222.408 174.5,224.5C 174.5,226.833 174.5,229.167 174.5,231.5C 171.594,229.55 168.594,227.883 165.5,226.5C 165.5,224.5 165.5,222.5 165.5,220.5 Z"/></g>
<g><path style="opacity:0.294" fill="#347bf3" d="M 186.5,219.5 C 194.522,225.189 201.189,232.189 206.5,240.5C 206.5,244.833 206.5,249.167 206.5,253.5C 201.795,242.755 195.129,233.421 186.5,225.5C 186.5,223.5 186.5,221.5 186.5,219.5 Z"/></g>
<g><path style="opacity:0.145" fill="#327bf2" d="M 199.5,215.5 C 203.877,219.268 207.544,223.601 210.5,228.5C 209.833,229.833 208.833,230.833 207.5,231.5C 205.213,227.878 202.547,224.545 199.5,221.5C 199.5,219.5 199.5,217.5 199.5,215.5 Z"/></g>
<g><path style="opacity:0.423" fill="#8d3bd7" d="M 131.5,220.5 C 131.5,222.5 131.5,224.5 131.5,226.5C 123.843,229.327 117.177,233.661 111.5,239.5C 111.5,236.833 111.5,234.167 111.5,231.5C 116.948,225.773 123.614,222.106 131.5,220.5 Z"/></g>
<g><path style="opacity:0.6" fill="#6f50e0" d="M 146.5,228.5 C 146.5,230.833 146.5,233.167 146.5,235.5C 143.763,235.401 141.096,235.735 138.5,236.5C 138.5,234.167 138.5,231.833 138.5,229.5C 141.054,228.612 143.721,228.279 146.5,228.5 Z"/></g>
<g><path style="opacity:0.604" fill="#605be5" d="M 146.5,228.5 C 151.453,228.123 156.119,228.789 160.5,230.5C 160.5,232.833 160.5,235.167 160.5,237.5C 156.01,235.889 151.343,235.222 146.5,235.5C 146.5,233.167 146.5,230.833 146.5,228.5 Z"/></g>
<g><path style="opacity:0.966" fill="#2b398e" d="M 210.5,228.5 C 214.192,227.971 217.358,228.971 220,231.5C 220.499,236.823 220.666,242.156 220.5,247.5C 220.5,255.833 220.5,264.167 220.5,272.5C 220.5,273.167 220.5,273.833 220.5,274.5C 220.5,282.833 220.5,291.167 220.5,299.5C 220.665,302.518 220.498,305.518 220,308.5C 218.871,310.141 217.371,311.141 215.5,311.5C 213.833,311.5 212.167,311.5 210.5,311.5C 208.469,310.461 207.136,308.795 206.5,306.5C 206.5,302.167 206.5,297.833 206.5,293.5C 206.5,280.167 206.5,266.833 206.5,253.5C 206.5,249.167 206.5,244.833 206.5,240.5C 206.264,237.391 206.597,234.391 207.5,231.5C 208.833,230.833 209.833,229.833 210.5,228.5 Z"/></g>
<g><path style="opacity:0.943" fill="#2b398e" d="M 242.5,230.5 C 263.836,230.333 285.169,230.5 306.5,231C 309.491,233.141 310.658,235.975 310,239.5C 308.729,242.433 307.062,245.099 305,247.5C 288.5,264 272,280.5 255.5,297C 273.833,297.333 292.167,297.667 310.5,298C 312.815,299.296 313.815,301.296 313.5,304C 313.646,306.034 312.98,307.701 311.5,309C 299.092,310.148 286.592,310.648 274,310.5C 262.167,310.333 250.333,310.167 238.5,310C 235.634,308.607 234.301,306.274 234.5,303C 234.542,301.033 235.042,299.199 236,297.5C 253.833,279.667 271.667,261.833 289.5,244C 274.167,243.667 258.833,243.333 243.5,243C 237.211,239.302 236.877,235.135 242.5,230.5 Z"/></g>
<g><path style="opacity:0.446" fill="#3878f1" d="M 174.5,224.5 C 180.998,227.325 186.331,231.658 190.5,237.5C 190.5,240.833 190.5,244.167 190.5,247.5C 186.194,241.194 180.861,235.861 174.5,231.5C 174.5,229.167 174.5,226.833 174.5,224.5 Z"/></g>
<g><path style="opacity:0.572" fill="#873fd9" d="M 138.5,229.5 C 138.5,231.833 138.5,234.167 138.5,236.5C 132.604,238.115 127.271,240.781 122.5,244.5C 122.5,241.833 122.5,239.167 122.5,236.5C 127.07,232.635 132.404,230.302 138.5,229.5 Z"/></g>
<g><path style="opacity:0.567" fill="#496cec" d="M 160.5,230.5 C 164.852,230.846 168.519,232.512 171.5,235.5C 171.5,238.167 171.5,240.833 171.5,243.5C 168.282,240.723 164.615,238.723 160.5,237.5C 160.5,235.167 160.5,232.833 160.5,230.5 Z"/></g>
<g><path style="opacity:0.577" fill="#3a76f1" d="M 171.5,235.5 C 176.043,237.372 179.71,240.372 182.5,244.5C 182.5,248.5 182.5,252.5 182.5,256.5C 179.535,251.57 175.869,247.237 171.5,243.5C 171.5,240.833 171.5,238.167 171.5,235.5 Z"/></g>
<g><path style="opacity:0.748" fill="#6e51e1" d="M 141.5,239.5 C 144.167,239.5 146.833,239.5 149.5,239.5C 149.5,241.833 149.5,244.167 149.5,246.5C 146.833,246.833 144.167,247.167 141.5,247.5C 141.5,244.833 141.5,242.167 141.5,239.5 Z"/></g>
<g><path style="opacity:0.794" fill="#5960e7" d="M 149.5,239.5 C 152.57,239.368 155.57,239.701 158.5,240.5C 158.5,243.167 158.5,245.833 158.5,248.5C 155.417,248.084 152.417,247.417 149.5,246.5C 149.5,244.167 149.5,241.833 149.5,239.5 Z"/></g>
<g><path style="opacity:0.718" fill="#8242db" d="M 141.5,239.5 C 141.5,242.167 141.5,244.833 141.5,247.5C 137.888,248.639 134.554,250.306 131.5,252.5C 131.5,249.5 131.5,246.5 131.5,243.5C 134.518,241.6 137.851,240.267 141.5,239.5 Z"/></g>
<g><path style="opacity:0.737" fill="#4a6bec" d="M 158.5,240.5 C 160.915,241.305 163.249,242.305 165.5,243.5C 165.5,246.833 165.5,250.167 165.5,253.5C 162.953,252.066 160.619,250.4 158.5,248.5C 158.5,245.833 158.5,243.167 158.5,240.5 Z"/></g>
<g><path style="opacity:0.566" fill="#9c2fd2" d="M 122.5,236.5 C 122.5,239.167 122.5,241.833 122.5,244.5C 116.949,250.273 112.949,256.94 110.5,264.5C 110.5,259.167 110.5,253.833 110.5,248.5C 113.5,243.5 117.5,239.5 122.5,236.5 Z"/></g>
<g><path style="opacity:0.728" fill="#3a77f1" d="M 165.5,243.5 C 168.784,245.117 171.451,247.45 173.5,250.5C 173.5,255.167 173.5,259.833 173.5,264.5C 171.58,260.34 168.913,256.673 165.5,253.5C 165.5,250.167 165.5,246.833 165.5,243.5 Z"/></g>
<g><path style="opacity:0.149" fill="#2387f8" d="M 220.5,247.5 C 227.167,264.833 227.167,282.167 220.5,299.5C 220.5,291.167 220.5,282.833 220.5,274.5C 221.833,273.833 221.833,273.167 220.5,272.5C 220.5,264.167 220.5,255.833 220.5,247.5 Z"/></g>
<g><path style="opacity:0.619" fill="#a728cf" d="M 110.5,248.5 C 110.5,253.833 110.5,259.167 110.5,264.5C 109.26,270.494 109.26,276.494 110.5,282.5C 110.5,287.833 110.5,293.167 110.5,298.5C 99.8356,281.823 99.8356,265.157 110.5,248.5 Z"/></g>
<g><path style="opacity:0.461" fill="#2983f6" d="M 190.5,237.5 C 201.789,250.728 205.956,266.061 203,283.5C 201.201,293.429 197.034,302.095 190.5,309.5C 190.5,306.167 190.5,302.833 190.5,299.5C 199.833,282.167 199.833,264.833 190.5,247.5C 190.5,244.167 190.5,240.833 190.5,237.5 Z"/></g>
<g><path style="opacity:0.761" fill="#6c34ae" d="M 88.5,244.5 C 88.8337,247.491 87.8337,249.824 85.5,251.5C 85.7073,248.759 86.7073,246.426 88.5,244.5 Z"/></g>
<g><path style="opacity:0.896" fill="#6259e5" d="M 145.5,249.5 C 148.545,249.508 151.545,249.841 154.5,250.5C 154.5,253.5 154.5,256.5 154.5,259.5C 151.545,258.841 148.545,258.508 145.5,258.5C 145.5,255.5 145.5,252.5 145.5,249.5 Z"/></g>
<g><path style="opacity:0.18" fill="#a926ce" d="M 83.5,231.5 C 83.5,233.833 83.5,236.167 83.5,238.5C 77.1061,251.136 74.4394,264.47 75.5,278.5C 75.3568,281.097 74.5234,283.431 73,285.5C 71.8551,282.568 71.0218,279.568 70.5,276.5C 69.8097,259.919 74.1431,244.919 83.5,231.5 Z"/></g>
<g><path style="opacity:0.757" fill="#9b30d3" d="M 131.5,243.5 C 131.5,246.5 131.5,249.5 131.5,252.5C 119.024,265.257 118.357,278.591 129.5,292.5C 129.5,295.833 129.5,299.167 129.5,302.5C 125.167,300.167 121.833,296.833 119.5,292.5C 119.5,279.833 119.5,267.167 119.5,254.5C 122.243,249.422 126.243,245.755 131.5,243.5 Z"/></g>
<g><path style="opacity:0.643" fill="#2a82f6" d="M 182.5,244.5 C 197.167,263.833 197.167,283.167 182.5,302.5C 182.5,298.5 182.5,294.5 182.5,290.5C 184.58,285.031 185.913,279.364 186.5,273.5C 185.913,267.636 184.58,261.969 182.5,256.5C 182.5,252.5 182.5,248.5 182.5,244.5 Z"/></g>
<g><path style="opacity:0.431" fill="#a22acf" d="M 111.5,231.5 C 111.5,234.167 111.5,236.833 111.5,239.5C 96.1187,259.012 94.452,279.679 106.5,301.5C 106.5,304.5 106.5,307.5 106.5,310.5C 97.1658,300.814 92.4991,289.147 92.5,275.5C 96.5088,261.474 101.509,247.807 107.5,234.5C 108.833,233.5 110.167,232.5 111.5,231.5 Z"/></g>
<g><path style="opacity:0.98" fill="#7e45dc" d="M 145.5,249.5 C 145.5,252.5 145.5,255.5 145.5,258.5C 142.554,259.306 139.888,260.639 137.5,262.5C 137.5,259.167 137.5,255.833 137.5,252.5C 139.979,251.205 142.646,250.205 145.5,249.5 Z"/></g>
<g><path style="opacity:0.904" fill="#4d68eb" d="M 154.5,250.5 C 156.167,251.167 157.833,251.833 159.5,252.5C 159.5,256.167 159.5,259.833 159.5,263.5C 157.611,262.396 155.945,261.063 154.5,259.5C 154.5,256.5 154.5,253.5 154.5,250.5 Z"/></g>
<g><path style="opacity:0.784" fill="#307ef4" d="M 173.5,250.5 C 175.326,252.147 176.66,254.147 177.5,256.5C 177.5,267.833 177.5,279.167 177.5,290.5C 175.889,294.051 173.556,297.051 170.5,299.5C 170.5,295.5 170.5,291.5 170.5,287.5C 174.459,280.254 175.459,272.587 173.5,264.5C 173.5,259.833 173.5,255.167 173.5,250.5 Z"/></g>
<g><path style="opacity:0.79" fill="#a727cf" d="M 119.5,254.5 C 119.5,267.167 119.5,279.833 119.5,292.5C 111.559,279.823 111.559,267.156 119.5,254.5 Z"/></g>
<g><path style="opacity:0.859" fill="#3c75f0" d="M 159.5,252.5 C 161.909,253.701 163.909,255.367 165.5,257.5C 165.5,267.833 165.5,278.167 165.5,288.5C 164.089,290.914 162.089,292.581 159.5,293.5C 159.5,290.167 159.5,286.833 159.5,283.5C 163.494,276.865 163.494,270.199 159.5,263.5C 159.5,259.833 159.5,256.167 159.5,252.5 Z"/></g>
<g><path style="opacity:0.945" fill="#9336d5" d="M 137.5,252.5 C 137.5,255.833 137.5,259.167 137.5,262.5C 132.413,269.373 132.247,276.373 137,283.5C 138.271,284.883 139.771,285.883 141.5,286.5C 141.5,289.833 141.5,293.167 141.5,296.5C 136.801,295.009 133.134,292.342 130.5,288.5C 130.5,278.167 130.5,267.833 130.5,257.5C 132.296,255.1 134.63,253.433 137.5,252.5 Z"/></g>
<g><path style="opacity:0.759" fill="#2785f7" d="M 177.5,256.5 C 184.167,267.833 184.167,279.167 177.5,290.5C 177.5,279.167 177.5,267.833 177.5,256.5 Z"/></g>
<g><path style="opacity:0.933" fill="#2c81f5" d="M 165.5,257.5 C 171.56,264.868 173.06,273.201 170,282.5C 169.208,285.106 167.708,287.106 165.5,288.5C 165.5,278.167 165.5,267.833 165.5,257.5 Z"/></g>
<g><path style="opacity:0.714" fill="#a628cf" d="M 130.5,257.5 C 130.5,267.833 130.5,278.167 130.5,288.5C 126.174,284.54 124.174,279.54 124.5,273.5C 124.353,267.265 126.353,261.932 130.5,257.5 Z"/></g>
<g><path style="opacity:0.861" fill="#4d68eb" d="M 159.5,283.5 C 159.5,286.833 159.5,290.167 159.5,293.5C 158.035,294.737 156.368,295.737 154.5,296.5C 154.5,293.167 154.5,289.833 154.5,286.5C 156.001,285.248 157.668,284.248 159.5,283.5 Z"/></g>
<g><path style="opacity:0.903" fill="#734edf" d="M 141.5,286.5 C 143.701,287.566 146.035,288.233 148.5,288.5C 148.5,291.167 148.5,293.833 148.5,296.5C 146.167,296.5 143.833,296.5 141.5,296.5C 141.5,293.167 141.5,289.833 141.5,286.5 Z"/></g>
<g><path style="opacity:0.917" fill="#5c5ee7" d="M 154.5,286.5 C 154.5,289.833 154.5,293.167 154.5,296.5C 152.5,296.5 150.5,296.5 148.5,296.5C 148.5,293.833 148.5,291.167 148.5,288.5C 150.579,288.029 152.579,287.363 154.5,286.5 Z"/></g>
<g><path style="opacity:0.726" fill="#3f73ef" d="M 170.5,287.5 C 170.5,291.5 170.5,295.5 170.5,299.5C 169.078,300.925 167.411,301.925 165.5,302.5C 165.5,299.5 165.5,296.5 165.5,293.5C 167.196,291.475 168.863,289.475 170.5,287.5 Z"/></g>
<g><path style="opacity:0.565" fill="#9833d4" d="M 110.5,282.5 C 113.605,291.707 118.938,299.373 126.5,305.5C 126.5,307.833 126.5,310.167 126.5,312.5C 119.63,309.633 114.297,304.966 110.5,298.5C 110.5,293.167 110.5,287.833 110.5,282.5 Z"/></g>
<g><path style="opacity:0.729" fill="#4f67ea" d="M 165.5,293.5 C 165.5,296.5 165.5,299.5 165.5,302.5C 162.018,305.236 158.018,306.903 153.5,307.5C 153.5,304.833 153.5,302.167 153.5,299.5C 157.779,298.027 161.779,296.027 165.5,293.5 Z"/></g>
<g><path style="opacity:0.708" fill="#8242db" d="M 129.5,292.5 C 132.365,294.761 135.365,296.761 138.5,298.5C 138.5,301.167 138.5,303.833 138.5,306.5C 135.378,305.439 132.378,304.105 129.5,302.5C 129.5,299.167 129.5,295.833 129.5,292.5 Z"/></g>
<g><path style="opacity:0.735" fill="#6b53e2" d="M 138.5,298.5 C 143.453,299.329 148.453,299.663 153.5,299.5C 153.5,302.167 153.5,304.833 153.5,307.5C 148.438,307.726 143.438,307.392 138.5,306.5C 138.5,303.833 138.5,301.167 138.5,298.5 Z"/></g>
<g><path style="opacity:0.286" fill="#a02dd1" d="M 88.5,286.5 C 90.6946,298.225 96.0279,308.225 104.5,316.5C 104.5,318.833 104.5,321.167 104.5,323.5C 95.3679,315.893 88.7012,306.56 84.5,295.5C 85.0881,292.111 86.4214,289.111 88.5,286.5 Z"/></g>
<g><path style="opacity:0.433" fill="#3779f2" d="M 190.5,299.5 C 190.5,302.833 190.5,306.167 190.5,309.5C 187.789,313.212 184.456,316.212 180.5,318.5C 180.5,316.167 180.5,313.833 180.5,311.5C 184.24,307.767 187.573,303.767 190.5,299.5 Z"/></g>
<g><path style="opacity:0.622" fill="#4072ef" d="M 182.5,290.5 C 182.5,294.5 182.5,298.5 182.5,302.5C 178.039,307.623 172.706,311.623 166.5,314.5C 166.5,311.833 166.5,309.167 166.5,306.5C 173.176,302.457 178.509,297.124 182.5,290.5 Z"/></g>
<g><path style="opacity:0.589" fill="#7a49dd" d="M 126.5,305.5 C 131.628,308.065 136.962,310.065 142.5,311.5C 142.5,313.833 142.5,316.167 142.5,318.5C 136.621,317.707 131.287,315.707 126.5,312.5C 126.5,310.167 126.5,307.833 126.5,305.5 Z"/></g>
<g><path style="opacity:0.294" fill="#327cf3" d="M 206.5,293.5 C 206.5,297.833 206.5,302.167 206.5,306.5C 202.776,312.582 198.11,317.916 192.5,322.5C 192.5,320.167 192.5,317.833 192.5,315.5C 198.192,308.774 202.859,301.441 206.5,293.5 Z"/></g>
<g><path style="opacity:0.578" fill="#6955e2" d="M 142.5,311.5 C 145.167,311.5 147.833,311.5 150.5,311.5C 150.5,313.833 150.5,316.167 150.5,318.5C 147.833,318.5 145.167,318.5 142.5,318.5C 142.5,316.167 142.5,313.833 142.5,311.5 Z"/></g>
<g><path style="opacity:0.601" fill="#5a5fe7" d="M 166.5,306.5 C 166.5,309.167 166.5,311.833 166.5,314.5C 161.424,316.717 156.091,318.05 150.5,318.5C 150.5,316.167 150.5,313.833 150.5,311.5C 156.23,311.034 161.563,309.367 166.5,306.5 Z"/></g>
<g><path style="opacity:0.448" fill="#466eed" d="M 180.5,311.5 C 180.5,313.833 180.5,316.167 180.5,318.5C 177.534,320.988 174.201,322.988 170.5,324.5C 170.5,322.167 170.5,319.833 170.5,317.5C 173.833,315.5 177.167,313.5 180.5,311.5 Z"/></g>
<g><path style="opacity:0.446" fill="#8d3bd7" d="M 106.5,301.5 C 111.611,308.278 117.945,313.611 125.5,317.5C 125.5,319.833 125.5,322.167 125.5,324.5C 118.04,321.374 111.706,316.708 106.5,310.5C 106.5,307.5 106.5,304.5 106.5,301.5 Z"/></g>
<g><path style="opacity:0.428" fill="#5265e9" d="M 170.5,317.5 C 170.5,319.833 170.5,322.167 170.5,324.5C 166.123,326.762 161.456,328.095 156.5,328.5C 156.5,326.5 156.5,324.5 156.5,322.5C 161.464,321.623 166.131,319.957 170.5,317.5 Z"/></g>
<g><path style="opacity:0.156" fill="#357af2" d="M 210.5,311.5 C 212.167,311.5 213.833,311.5 215.5,311.5C 209.598,321.071 202.264,329.404 193.5,336.5C 191.833,335.833 190.167,335.167 188.5,334.5C 197.209,328.125 204.542,320.458 210.5,311.5 Z"/></g>
<g><path style="opacity:0.289" fill="#4072ef" d="M 192.5,315.5 C 192.5,317.833 192.5,320.167 192.5,322.5C 188.999,326.662 184.665,329.662 179.5,331.5C 179.5,329.833 179.5,328.167 179.5,326.5C 184.102,323.238 188.435,319.572 192.5,315.5 Z"/></g>
<g><path style="opacity:0.292" fill="#8c3bd7" d="M 104.5,316.5 C 109.612,321.278 115.279,325.278 121.5,328.5C 121.5,330.5 121.5,332.5 121.5,334.5C 121.167,334.5 120.833,334.5 120.5,334.5C 120.158,333.662 119.492,333.328 118.5,333.5C 118.167,333.5 117.833,333.5 117.5,333.5C 112.986,330.409 108.653,327.075 104.5,323.5C 104.5,321.167 104.5,318.833 104.5,316.5 Z"/></g>
<g><path style="opacity:0.423" fill="#744cdf" d="M 125.5,317.5 C 131.799,320.741 138.465,322.741 145.5,323.5C 145.5,325.5 145.5,327.5 145.5,329.5C 138.49,329.081 131.823,327.414 125.5,324.5C 125.5,322.167 125.5,319.833 125.5,317.5 Z"/></g>
<g><path style="opacity:0.431" fill="#6359e4" d="M 156.5,322.5 C 156.5,324.5 156.5,326.5 156.5,328.5C 152.881,329.244 149.215,329.577 145.5,329.5C 145.5,327.5 145.5,325.5 145.5,323.5C 149.179,323.276 152.846,322.942 156.5,322.5 Z"/></g>
<g><path style="opacity:0.147" fill="#9734d4" d="M 81.5,304.5 C 88.3522,317.687 98.0189,328.354 110.5,336.5C 109.833,337.833 108.833,338.833 107.5,339.5C 95.4468,332.078 86.1135,322.078 79.5,309.5C 79.7959,307.597 80.4625,305.93 81.5,304.5 Z"/></g>
<g><path style="opacity:0.284" fill="#4e68eb" d="M 179.5,326.5 C 179.5,328.167 179.5,329.833 179.5,331.5C 175.356,334.568 170.689,336.568 165.5,337.5C 165.5,335.833 165.5,334.167 165.5,332.5C 170.099,330.539 174.765,328.539 179.5,326.5 Z"/></g>
<g><path style="opacity:0.278" fill="#7b46db" d="M 121.5,328.5 C 126.285,330.762 131.285,332.428 136.5,333.5C 136.784,335.415 136.451,337.081 135.5,338.5C 132.097,338.149 128.763,337.482 125.5,336.5C 124.167,335.833 122.833,335.167 121.5,334.5C 121.5,332.5 121.5,330.5 121.5,328.5 Z"/></g>
<g><path style="opacity:0.73" fill="#2b398e" d="M 39.5,333.5 C 40.4959,333.414 41.3292,333.748 42,334.5C 44.0083,339.201 46.0083,343.867 48,348.5C 49.8637,343.909 51.5304,339.243 53,334.5C 54,333.167 55,333.167 56,334.5C 55.3157,339.572 53.9824,344.572 52,349.5C 51.2176,352.216 49.8843,354.55 48,356.5C 46.3468,356.18 45.3468,355.18 45,353.5C 43,348.167 41,342.833 39,337.5C 38.4209,336.072 38.5876,334.738 39.5,333.5 Z"/></g>
<g><path style="opacity:0.761" fill="#2b398e" d="M 71.5,333.5 C 84.5963,335.526 87.9296,342.36 81.5,354C 73.7894,358.44 67.6227,356.94 63,349.5C 60.8955,341.369 63.7289,336.035 71.5,333.5 Z M 71.5,337.5 C 80.2951,338.435 82.7951,342.769 79,350.5C 70.378,354.53 66.378,351.863 67,342.5C 68.025,340.313 69.525,338.646 71.5,337.5 Z"/></g>
<g><path style="opacity:0.721" fill="#2b398e" d="M 94.5,333.5 C 95.4959,333.414 96.3292,333.748 97,334.5C 97.4997,341.826 97.6663,349.159 97.5,356.5C 96.1779,356.67 95.0113,356.337 94,355.5C 93.2036,348.087 93.3703,340.754 94.5,333.5 Z"/></g>
<g><path style="opacity:0.758" fill="#2b398e" d="M 117.5,333.5 C 117.833,333.5 118.167,333.5 118.5,333.5C 118.842,334.338 119.508,334.672 120.5,334.5C 120.833,334.5 121.167,334.5 121.5,334.5C 122.833,335.167 124.167,335.833 125.5,336.5C 126.234,337.708 126.567,339.041 126.5,340.5C 123.422,339.798 120.422,338.798 117.5,337.5C 116.584,337.543 115.917,337.876 115.5,338.5C 113.167,338.833 111.833,340.167 111.5,342.5C 109.69,346.377 110.69,349.543 114.5,352C 116.833,352.667 119.167,352.667 121.5,352C 122.653,350.117 124.319,349.284 126.5,349.5C 127.026,352.808 125.693,354.974 122.5,356C 109.998,357.331 104.998,351.831 107.5,339.5C 108.833,338.833 109.833,337.833 110.5,336.5C 112.732,335.131 115.066,334.131 117.5,333.5 Z"/></g>
<g><path style="opacity:0.79" fill="#2c3990" d="M 136.5,333.5 C 141.595,333.221 146.595,333.555 151.5,334.5C 151.5,335.5 151.5,336.5 151.5,337.5C 147.029,336.911 143.029,337.577 139.5,339.5C 139.5,340.833 139.5,342.167 139.5,343.5C 142.833,343.5 146.167,343.5 149.5,343.5C 149.5,344.5 149.5,345.5 149.5,346.5C 146.272,347.414 142.939,347.747 139.5,347.5C 139.5,348.5 139.5,349.5 139.5,350.5C 143.044,352.268 147.044,353.102 151.5,353C 152.451,353.718 152.617,354.551 152,355.5C 146.918,356.637 141.751,356.804 136.5,356C 135.577,353.959 135.244,351.792 135.5,349.5C 135.5,348.167 135.5,346.833 135.5,345.5C 135.5,343.167 135.5,340.833 135.5,338.5C 136.451,337.081 136.784,335.415 136.5,333.5 Z"/></g>
<g><path style="opacity:0.779" fill="#2b398f" d="M 188.5,334.5 C 190.167,335.167 191.833,335.833 193.5,336.5C 194.626,340.268 193.292,341.268 189.5,339.5C 183.924,336.605 179.924,338.271 177.5,344.5C 178.447,350.974 182.113,353.474 188.5,352C 190.055,350.711 191.721,350.044 193.5,350C 194.5,352.091 193.833,353.757 191.5,355C 186.384,357.256 181.551,356.756 177,353.5C 175.097,351.559 174.264,349.226 174.5,346.5C 174.5,344.833 174.5,343.167 174.5,341.5C 177.353,335.407 182.02,333.073 188.5,334.5 Z"/></g>
<g><path style="opacity:0.765" fill="#2b398e" d="M 211.5,333.5 C 223.86,336.14 226.86,342.973 220.5,354C 207.813,359.301 201.647,355.134 202,341.5C 203.593,336.808 206.76,334.142 211.5,333.5 Z M 210.5,337.5 C 219.295,338.435 221.795,342.769 218,350.5C 209.725,354.224 205.725,351.557 206,342.5C 207.025,340.313 208.525,338.646 210.5,337.5 Z"/></g>
<g><path style="opacity:0.827" fill="#2b398e" d="M 233.5,333.5 C 239.775,337.679 244.942,343.013 249,349.5C 249.171,344.136 249.671,338.802 250.5,333.5C 251.086,333.709 251.586,334.043 252,334.5C 252.5,341.826 252.666,349.159 252.5,356.5C 251.448,356.649 250.448,356.483 249.5,356C 245.333,351.167 241.167,346.333 237,341.5C 236.501,346.489 236.334,351.489 236.5,356.5C 235.5,356.5 234.5,356.5 233.5,356.5C 233.385,348.683 233.385,341.016 233.5,333.5 Z"/></g>
<g><path style="opacity:0.784" fill="#2b398e" d="M 263.5,333.5 C 266.394,334.882 268.894,336.882 271,339.5C 273.667,342.833 276.333,346.167 279,349.5C 279.171,344.136 279.671,338.802 280.5,333.5C 281.086,333.709 281.586,334.043 282,334.5C 282.5,341.826 282.666,349.159 282.5,356.5C 281.448,356.649 280.448,356.483 279.5,356C 275.333,351.167 271.167,346.333 267,341.5C 266.501,346.489 266.334,351.489 266.5,356.5C 265.178,356.67 264.011,356.337 263,355.5C 262.204,348.087 262.37,340.754 263.5,333.5 Z"/></g>
<g><path style="opacity:0.78" fill="#2b398e" d="M 293.5,333.5 C 298.762,333.195 303.928,333.529 309,334.5C 309.617,335.449 309.451,336.282 308.5,337C 304.514,337.499 300.514,337.666 296.5,337.5C 296.5,339.5 296.5,341.5 296.5,343.5C 299.833,343.5 303.167,343.5 306.5,343.5C 306.67,344.822 306.337,345.989 305.5,347C 302.518,347.498 299.518,347.665 296.5,347.5C 296.5,349.167 296.5,350.833 296.5,352.5C 300.514,352.334 304.514,352.501 308.5,353C 309.451,353.718 309.617,354.551 309,355.5C 303.928,356.471 298.762,356.805 293.5,356.5C 293.385,348.683 293.385,341.016 293.5,333.5 Z"/></g>
<g><path style="opacity:0.742" fill="#2b398e" d="M 327.5,333.5 C 332.598,333.275 335.598,335.608 336.5,340.5C 333.773,339.423 330.94,338.423 328,337.5C 319.577,340.618 318.41,345.451 324.5,352C 328.524,353.097 332.024,352.264 335,349.5C 336.28,349.613 337.113,350.28 337.5,351.5C 336.307,353.527 334.64,355.027 332.5,356C 321.706,357.87 316.539,353.37 317,342.5C 318.859,337.467 322.359,334.467 327.5,333.5 Z"/></g>
<g><path style="opacity:0.71" fill="#2b398e" d="M 345.5,333.5 C 350.844,333.334 356.177,333.501 361.5,334C 362.337,335.011 362.67,336.178 362.5,337.5C 360.167,337.5 357.833,337.5 355.5,337.5C 355.5,343.833 355.5,350.167 355.5,356.5C 354.178,356.67 353.011,356.337 352,355.5C 351.501,349.509 351.334,343.509 351.5,337.5C 349.167,337.5 346.833,337.5 344.5,337.5C 344.433,336.041 344.766,334.708 345.5,333.5 Z"/></g>
<g><path style="opacity:0.745" fill="#2b398e" d="M 377.5,333.5 C 381.064,333.725 383.731,335.392 385.5,338.5C 385.167,339.5 384.5,340.167 383.5,340.5C 380.504,337.081 377.504,336.914 374.5,340C 377.749,342.543 381.249,344.709 385,346.5C 386.956,352.874 384.622,356.207 378,356.5C 372.651,356.666 370.485,354.333 371.5,349.5C 374.193,352.476 377.36,353.143 381,351.5C 381.667,350.5 381.667,349.5 381,348.5C 378.602,347.144 376.102,345.977 373.5,345C 369.5,341.667 369.5,338.333 373.5,335C 375.058,334.79 376.391,334.29 377.5,333.5 Z"/></g>
<g><path style="opacity:0.74" fill="#2b398e" d="M 408.5,333.5 C 409.496,333.414 410.329,333.748 411,334.5C 412.619,339.365 414.619,344.032 417,348.5C 418.041,345.171 419.541,342.171 421.5,339.5C 423.719,342.124 425.386,345.124 426.5,348.5C 428.605,343.954 430.439,339.287 432,334.5C 433,333.167 434,333.167 435,334.5C 433.768,341.701 431.602,348.701 428.5,355.5C 427.349,356.731 426.183,356.731 425,355.5C 423.803,352.911 422.803,350.244 422,347.5C 420.55,350.008 419.383,352.675 418.5,355.5C 417.349,356.731 416.183,356.731 415,355.5C 412.361,349.055 409.861,342.555 407.5,336C 407.743,335.098 408.077,334.265 408.5,333.5 Z"/></g>
<g><path style="opacity:0.927" fill="#2b398e" d="M 444.5,333.5 C 445.496,333.414 446.329,333.748 447,334.5C 447.5,341.826 447.666,349.159 447.5,356.5C 446.5,356.5 445.5,356.5 444.5,356.5C 444.416,348.623 444.416,340.957 444.5,333.5 Z"/></g>
<g><path style="opacity:0.736" fill="#2b398e" d="M 463.5,333.5 C 466.192,334.009 468.692,335.009 471,336.5C 471.783,338.319 471.283,339.652 469.5,340.5C 468.071,339.065 466.405,338.065 464.5,337.5C 461.604,338.024 460.937,339.524 462.5,342C 467.437,342.786 470.77,345.453 472.5,350C 469.678,356.467 465.011,358.134 458.5,355C 455.895,353.069 455.895,351.236 458.5,349.5C 460.063,351.402 462.063,352.402 464.5,352.5C 466.319,352.658 467.652,351.991 468.5,350.5C 465.09,347.712 461.59,345.045 458,342.5C 456.8,337.556 458.634,334.556 463.5,333.5 Z"/></g>
<g><path style="opacity:0.793" fill="#2b398e" d="M 481.5,333.5 C 486.382,333.193 491.049,334.026 495.5,336C 501.062,342.62 500.728,348.953 494.5,355C 490.3,356.367 485.967,356.867 481.5,356.5C 481.5,348.833 481.5,341.167 481.5,333.5 Z M 484.5,337.5 C 490.869,336.681 494.869,339.347 496.5,345.5C 494.679,351.415 490.679,353.748 484.5,352.5C 484.5,347.5 484.5,342.5 484.5,337.5 Z"/></g>
<g><path style="opacity:0.748" fill="#2b398e" d="M 517.5,333.5 C 529.346,335.198 532.846,341.531 528,352.5C 522,357.833 516,357.833 510,352.5C 505.576,343.252 508.076,336.918 517.5,333.5 Z M 517.5,337.5 C 527.222,339.626 528.888,344.46 522.5,352C 514.878,353.378 511.378,350.211 512,342.5C 513.406,340.256 515.239,338.59 517.5,337.5 Z"/></g>
<g><path style="opacity:0.827" fill="#2b398e" d="M 539.5,333.5 C 540.552,333.351 541.552,333.517 542.5,334C 545,337.167 547.5,340.333 550,343.5C 552.5,340.333 555,337.167 557.5,334C 558.449,333.383 559.282,333.549 560,334.5C 560.5,341.826 560.666,349.159 560.5,356.5C 559.5,356.5 558.5,356.5 557.5,356.5C 557.666,351.156 557.499,345.823 557,340.5C 555.114,343.641 552.78,346.308 550,348.5C 547.365,346.192 545.032,343.525 543,340.5C 542.501,345.823 542.334,351.156 542.5,356.5C 541.5,356.5 540.5,356.5 539.5,356.5C 539.5,348.833 539.5,341.167 539.5,333.5 Z"/></g>
<g><path style="opacity:0.319" fill="#5f5be4" d="M 165.5,332.5 C 165.5,334.167 165.5,335.833 165.5,337.5C 156.981,339.294 148.314,339.961 139.5,339.5C 143.029,337.577 147.029,336.911 151.5,337.5C 151.5,336.5 151.5,335.5 151.5,334.5C 156.227,334.221 160.893,333.554 165.5,332.5 Z"/></g>
<g><path style="opacity:0.166" fill="#476cec" d="M 189.5,339.5 C 185.48,341.203 181.48,342.87 177.5,344.5C 179.924,338.271 183.924,336.605 189.5,339.5 Z"/></g>
<g><path style="opacity:0.153" fill="#7c47dc" d="M 115.5,338.5 C 121.892,341.631 128.559,343.964 135.5,345.5C 135.5,346.833 135.5,348.167 135.5,349.5C 127.131,348.376 119.131,346.043 111.5,342.5C 111.833,340.167 113.167,338.833 115.5,338.5 Z"/></g>
<g><path style="opacity:0.149" fill="#5762e8" d="M 174.5,341.5 C 174.5,343.167 174.5,344.833 174.5,346.5C 169.6,347.975 164.6,348.975 159.5,349.5C 159.5,348.167 159.5,346.833 159.5,345.5C 164.609,344.575 169.609,343.242 174.5,341.5 Z"/></g>
<g><path style="opacity:0.169" fill="#6657e3" d="M 159.5,345.5 C 159.5,346.833 159.5,348.167 159.5,349.5C 152.922,350.46 146.255,350.793 139.5,350.5C 139.5,349.5 139.5,348.5 139.5,347.5C 142.939,347.747 146.272,347.414 149.5,346.5C 152.86,346.384 156.193,346.051 159.5,345.5 Z"/></g>
</svg>
