<?xml version="1.0" encoding="UTF-8"?>
<!DOCTYPE svg PUBLIC "-//W3C//DTD SVG 1.1//EN" "http://www.w3.org/Graphics/SVG/1.1/DTD/svg11.dtd">
<svg xmlns="http://www.w3.org/2000/svg" version="1.1" width="700px" height="700px" style="shape-rendering:geometricPrecision; text-rendering:geometricPrecision; image-rendering:optimizeQuality; fill-rule:evenodd; clip-rule:evenodd" xmlns:xlink="http://www.w3.org/1999/xlink">
<g><path style="opacity:1" fill="#e5a401" d="M -0.5,-0.5 C 232.833,-0.5 466.167,-0.5 699.5,-0.5C 699.5,232.833 699.5,466.167 699.5,699.5C 466.167,699.5 232.833,699.5 -0.5,699.5C -0.5,466.167 -0.5,232.833 -0.5,-0.5 Z"/></g>
<g><path style="opacity:1" fill="#010000" d="M 348.5,35.5 C 422.788,78.6472 497.121,121.814 571.5,165C 573.65,166.411 575.984,167.245 578.5,167.5C 578.833,255.836 578.5,344.169 577.5,432.5C 501.624,476.357 425.791,520.357 350,564.5C 273.871,520.767 197.871,476.767 122,432.5C 121.167,344.165 121.333,255.831 122.5,167.5C 198.192,123.992 273.526,79.9917 348.5,35.5 Z"/></g>
<g><path style="opacity:1" fill="#eba703" d="M 371.5,310.5 C 369.503,376.825 368.837,443.492 369.5,510.5C 362.606,513.529 356.106,517.195 350,521.5C 343.373,518.443 337.206,514.777 331.5,510.5C 332.163,443.492 331.497,376.825 329.5,310.5C 272.562,278.362 215.895,245.696 159.5,212.5C 158.335,204.855 158.169,197.188 159,189.5C 165.022,185.321 171.356,181.655 178,178.5C 235.163,211.75 292.497,244.75 350,277.5C 407.122,244.358 464.289,211.358 521.5,178.5C 527.702,182.433 534.035,186.1 540.5,189.5C 541.813,197.058 541.813,204.558 540.5,212C 484.104,244.86 427.77,277.693 371.5,310.5 Z"/></g>
<g><path style="opacity:1" fill="#b98303" d="M 329.5,310.5 C 331.497,376.825 332.163,443.492 331.5,510.5C 330.83,443.931 330.163,377.264 329.5,310.5 Z"/></g>
<g><path style="opacity:1" fill="#1a1301" d="M 371.5,310.5 C 370.837,377.264 370.17,443.931 369.5,510.5C 368.837,443.492 369.503,376.825 371.5,310.5 Z"/></g>
<g><path style="opacity:1" fill="#0a0703" d="M 283.5,584.5 C 309.033,586.202 323.366,599.702 326.5,625C 323.741,648.926 310.408,662.426 286.5,665.5C 268.301,664.474 255.801,655.474 249,638.5C 243.128,617.113 249.628,600.613 268.5,589C 273.524,587.155 278.524,585.655 283.5,584.5 Z"/></g>
<g><path style="opacity:1" fill="#312405" d="M 160.5,587.5 C 165.015,586.188 169.682,586.188 174.5,587.5C 174.376,588.107 174.043,588.44 173.5,588.5C 169.366,587.515 165.032,587.182 160.5,587.5 Z"/></g>
<g><path style="opacity:1" fill="#0b0803" d="M 160.5,587.5 C 165.032,587.182 169.366,587.515 173.5,588.5C 166.602,601.295 159.935,614.295 153.5,627.5C 152.501,639.482 152.168,651.482 152.5,663.5C 147.833,663.5 143.167,663.5 138.5,663.5C 138.667,651.829 138.5,640.162 138,628.5C 130.848,614.865 123.682,601.198 116.5,587.5C 121.131,586.338 125.798,586.172 130.5,587C 135.135,596.442 140.135,605.608 145.5,614.5C 150.321,605.338 155.321,596.338 160.5,587.5 Z"/></g>
<g><path style="opacity:1" fill="#070503" d="M 188.5,586.5 C 197.194,586.491 205.861,586.991 214.5,588C 226.569,591.308 231.735,599.142 230,611.5C 228.077,615.258 225.577,618.591 222.5,621.5C 236.077,628.964 239.243,639.631 232,653.5C 227.091,659.703 220.591,662.87 212.5,663C 204.507,663.5 196.507,663.666 188.5,663.5C 188.5,637.833 188.5,612.167 188.5,586.5 Z"/></g>
<g><path style="opacity:1" fill="#090602" d="M 400.5,661.5 C 396.03,662.486 391.363,662.819 386.5,662.5C 380.883,653.553 374.883,644.886 368.5,636.5C 362.117,644.886 356.117,653.553 350.5,662.5C 345.637,662.819 340.97,662.486 336.5,661.5C 344.371,648.927 352.371,636.427 360.5,624C 352.965,611.765 345.298,599.599 337.5,587.5C 342.131,586.338 346.798,586.172 351.5,587C 357.043,595.254 362.71,603.421 368.5,611.5C 373.833,603.5 379.167,595.5 384.5,587.5C 389.802,586.337 395.136,586.171 400.5,587C 391.996,599.009 383.996,611.343 376.5,624C 384.64,636.455 392.64,648.955 400.5,661.5 Z"/></g>
<g><path style="opacity:1" fill="#090703" d="M 466.5,663.5 C 465.677,661.013 464.677,658.679 463.5,656.5C 455.898,633.361 447.898,610.361 439.5,587.5C 444.12,586.507 448.786,586.173 453.5,586.5C 458.999,603.159 464.499,619.825 470,636.5C 470.583,638.002 471.416,639.335 472.5,640.5C 480.077,622.874 486.744,604.874 492.5,586.5C 497.214,586.173 501.88,586.507 506.5,587.5C 496.708,612.543 487.708,637.877 479.5,663.5C 475.167,663.5 470.833,663.5 466.5,663.5 Z"/></g>
<g><path style="opacity:1" fill="#040302" d="M 533.5,587.5 C 543.774,603.772 554.441,619.772 565.5,635.5C 565.56,636.043 565.893,636.376 566.5,636.5C 567.499,620.18 567.833,603.847 567.5,587.5C 571.833,587.5 576.167,587.5 580.5,587.5C 580.169,612.339 580.502,637.006 581.5,661.5C 579.603,662.805 577.269,663.471 574.5,663.5C 572.167,663.333 569.833,663.167 567.5,663C 556.875,646.919 546.375,630.752 536,614.5C 535.329,613.748 534.496,613.414 533.5,613.5C 532.504,629.658 532.17,645.991 532.5,662.5C 528.5,662.5 524.5,662.5 520.5,662.5C 520.5,637.5 520.5,612.5 520.5,587.5C 524.833,587.5 529.167,587.5 533.5,587.5 Z"/></g>
<g><path style="opacity:1" fill="#1d1501" d="M 567.5,587.5 C 567.5,587.167 567.5,586.833 567.5,586.5C 572.167,586.5 576.833,586.5 581.5,586.5C 581.5,611.5 581.5,636.5 581.5,661.5C 580.502,637.006 580.169,612.339 580.5,587.5C 576.167,587.5 571.833,587.5 567.5,587.5 Z"/></g>
<g><path style="opacity:1" fill="#a3812c" d="M 567.5,586.5 C 567.5,586.833 567.5,587.167 567.5,587.5C 567.833,603.847 567.499,620.18 566.5,636.5C 565.893,636.376 565.56,636.043 565.5,635.5C 566.167,619.167 566.833,602.833 567.5,586.5 Z"/></g>
<g><path style="opacity:1" fill="#e2a305" d="M 311.5,619.5 C 311.563,624.203 311.229,628.87 310.5,633.5C 305.562,647.808 295.562,653.641 280.5,651C 263.925,644.685 257.758,632.852 262,615.5C 270.262,599.301 282.762,594.801 299.5,602C 306.116,606.074 310.116,611.907 311.5,619.5 Z"/></g>
<g><path style="opacity:1" fill="#e1a207" d="M 211.5,601.5 C 215.083,602.422 216.75,604.756 216.5,608.5C 216.705,611.229 215.872,613.562 214,615.5C 212.989,616.337 211.822,616.67 210.5,616.5C 208.167,616.5 205.833,616.5 203.5,616.5C 203.5,611.5 203.5,606.5 203.5,601.5C 206.167,601.5 208.833,601.5 211.5,601.5 Z"/></g>
<g><path style="opacity:1" fill="#bc8f21" d="M 211.5,601.5 C 208.833,601.5 206.167,601.5 203.5,601.5C 203.5,606.5 203.5,611.5 203.5,616.5C 205.833,616.5 208.167,616.5 210.5,616.5C 208.052,617.473 205.385,617.806 202.5,617.5C 202.5,611.833 202.5,606.167 202.5,600.5C 205.713,600.19 208.713,600.523 211.5,601.5 Z"/></g>
<g><path style="opacity:1" fill="#272011" d="M 533.5,613.5 C 533.5,630.167 533.5,646.833 533.5,663.5C 529.167,663.5 524.833,663.5 520.5,663.5C 520.5,663.167 520.5,662.833 520.5,662.5C 524.5,662.5 528.5,662.5 532.5,662.5C 532.17,645.991 532.504,629.658 533.5,613.5 Z"/></g>
<g><path style="opacity:1" fill="#a28130" d="M 311.5,619.5 C 312.161,621.134 312.494,622.967 312.5,625C 312.64,628.15 311.973,630.983 310.5,633.5C 311.229,628.87 311.563,624.203 311.5,619.5 Z"/></g>
<g><path style="opacity:1" fill="#e1a207" d="M 202.5,630.5 C 207.267,630.191 211.934,630.691 216.5,632C 223.588,636.53 224.255,641.863 218.5,648C 213.246,649.271 207.913,649.771 202.5,649.5C 202.5,643.167 202.5,636.833 202.5,630.5 Z"/></g>
<g><path style="opacity:1" fill="#4a3602" d="M 533.5,587.5 C 529.167,587.5 524.833,587.5 520.5,587.5C 520.5,612.5 520.5,637.5 520.5,662.5C 520.5,662.833 520.5,663.167 520.5,663.5C 519.502,638.005 519.169,612.339 519.5,586.5C 524.363,586.181 529.03,586.514 533.5,587.5 Z"/></g>
<g><path style="opacity:1" fill="#0e0b04" d="M 416.5,649.5 C 424.712,648.226 428.546,651.559 428,659.5C 423.591,665.406 418.925,665.74 414,660.5C 412.812,656.259 413.645,652.592 416.5,649.5 Z"/></g>
<g><path style="opacity:1" fill="#95721b" d="M 463.5,656.5 C 464.677,658.679 465.677,661.013 466.5,663.5C 464.179,661.91 463.179,659.577 463.5,656.5 Z"/></g>
<g><path style="opacity:1" fill="#352602" d="M 336.5,661.5 C 340.97,662.486 345.637,662.819 350.5,662.5C 345.652,663.814 340.652,663.814 335.5,662.5C 335.624,661.893 335.957,661.56 336.5,661.5 Z"/></g>
<g><path style="opacity:1" fill="#352703" d="M 400.5,661.5 C 401.043,661.56 401.376,661.893 401.5,662.5C 396.348,663.814 391.348,663.814 386.5,662.5C 391.363,662.819 396.03,662.486 400.5,661.5 Z"/></g>
</svg>
